<svg width="367" height="66" viewBox="0 0 367 66" fill="none" xmlns="http://www.w3.org/2000/svg">
<g clip-path="url(#clip0_1_2)">
<g clip-path="url(#clip1_1_2)">
<path d="M41.4472 22.8558C42.3934 23.8039 41.9669 25.7395 42.5452 26.8735C43.1427 28.0518 44.9459 28.8486 45.1435 30.1259C45.3467 31.4152 43.872 32.7319 43.6745 34.0261C43.4688 35.301 44.4696 37.0097 43.872 38.1887C43.2945 39.3252 41.3388 39.5248 40.391 40.4737C39.44 41.425 39.2424 43.3848 38.1107 43.9618C36.9332 44.563 35.2313 43.557 33.9526 43.759C32.6643 43.9618 31.3502 45.4395 30.0635 45.2375C28.788 45.0347 27.9937 43.2326 26.8202 42.6306C25.6861 42.0511 23.7576 42.4793 22.8082 41.5312C21.8589 40.5791 22.2886 38.6467 21.7127 37.5135C21.1111 36.3344 19.3111 35.5392 19.1103 34.2611C18.9071 32.9702 20.3818 31.6551 20.5834 30.3617C20.7858 29.0836 19.7842 27.3766 20.3818 26.1999C20.9601 25.0611 22.9135 24.8663 23.8644 23.9134C24.8122 22.9645 25.0098 21.0023 26.1447 20.4252C27.3174 19.8264 29.0234 20.8268 30.2996 20.6264C31.5888 20.4252 32.902 18.9475 34.1895 19.1495C35.465 19.3524 36.2602 21.1552 37.4368 21.7556C38.5685 22.3343 40.4978 21.9045 41.4472 22.8558Z" stroke="#1A73E8" stroke-width="1.87777" stroke-miterlimit="10" stroke-linecap="round" stroke-linejoin="round"/>
<path d="M43.6745 34.0261C43.4688 35.301 44.4696 37.0097 43.872 38.1887C43.2945 39.3252 41.3388 39.5248 40.391 40.4737C39.44 41.425 39.2424 43.3848 38.1107 43.9618C36.9332 44.563 35.2313 43.557 33.9526 43.759C33.6 43.8145 33.2393 43.9699 32.8827 44.1558L45.174 56.4722L47.6591 47.755L56.3561 45.2673L44.068 32.9509C43.8817 33.3114 43.7259 33.6688 43.6745 34.0261Z" stroke="#1A73E8" stroke-width="1.87777" stroke-miterlimit="10" stroke-linecap="round" stroke-linejoin="round"/>
<path d="M36.7879 36.8632C34.2152 39.4395 30.0426 39.4395 27.4684 36.8632C24.8949 34.2821 24.8949 30.1009 27.4684 27.5239C30.0418 24.9452 34.2144 24.9452 36.7879 27.5239C39.3605 30.1009 39.3605 34.2821 36.7879 36.8632Z" stroke="#1A73E8" stroke-width="1.87777" stroke-miterlimit="10" stroke-linecap="round" stroke-linejoin="round"/>
<path d="M63.968 18.9652C62.6805 20.2554 57.4653 17.1189 52.32 11.9615C47.1732 6.80416 44.0431 1.57916 45.3314 0.29062C46.6182 -1.00114 51.8333 2.1345 56.9794 7.29189C62.1263 12.4493 65.2547 17.6743 63.968 18.9652Z" stroke="#1A73E8" stroke-width="1.87777" stroke-miterlimit="10" stroke-linecap="round" stroke-linejoin="round"/>
<path d="M63.3624 19.2316C63.6106 19.1986 63.8186 19.1141 63.968 18.9652C63.7656 19.0481 63.5648 19.1463 63.3624 19.2316Z" stroke="#1A73E8" stroke-width="1.87777" stroke-miterlimit="10" stroke-linecap="round" stroke-linejoin="round"/>
<path d="M45.0632 0.895043C45.1483 0.693029 45.2463 0.49343 45.3298 0.289001C45.1804 0.437091 45.0969 0.647154 45.0632 0.895043Z" stroke="#1A73E8" stroke-width="1.87777" stroke-miterlimit="10" stroke-linecap="round" stroke-linejoin="round"/>
<path d="M29.9671 20.6417C30.0812 20.6401 30.1944 20.6417 30.2996 20.6248C31.5888 20.4236 32.902 18.9459 34.1895 19.1479C35.465 19.3507 36.2601 21.1536 37.4368 21.754C38.5677 22.3343 40.4986 21.9045 41.4464 22.855C42.3925 23.8031 41.966 25.7387 42.5443 26.8727C43.1419 28.051 44.9451 28.8478 45.1427 30.1251C45.3459 31.4144 43.8712 32.7311 43.6736 34.0245C43.6568 34.1315 43.6576 34.2434 43.6568 34.3577L49.0679 28.9347C53.3039 24.6884 58.1769 21.465 63.3616 19.23C61.4652 19.4908 56.8669 16.5185 52.3192 11.9599C47.7699 7.40134 44.8037 2.79526 45.064 0.893433C42.8335 6.08945 39.6167 10.9708 35.379 15.2163L29.9671 20.6417Z" stroke="#1A73E8" stroke-width="1.87777" stroke-miterlimit="10" stroke-linecap="round" stroke-linejoin="round"/>
<path d="M19.1938 63.4904C19.1938 63.4944 19.1914 63.496 19.1914 63.4992C19.1754 63.6208 19.1481 63.7318 19.1047 63.8292C19.0613 63.9314 19.0011 64.0232 18.9256 64.1004C17.6389 65.3906 12.4253 62.2533 7.27925 57.0976C2.13237 51.9402 -0.997682 46.716 0.289037 45.4258C0.364537 45.3518 0.453692 45.2906 0.556501 45.248C0.652885 45.2053 0.763725 45.1771 0.882598 45.1602C0.886614 45.1602 0.891434 45.157 0.89545 45.157M19.1938 63.4904V63.4944C19.1938 63.4904 19.1938 63.4904 19.1938 63.4904ZM19.1938 63.4904C21.4243 58.2943 24.6395 53.4138 28.8764 49.1691L34.2883 43.7461C34.1759 43.7493 34.0634 43.7461 33.9574 43.763C32.6691 43.9626 31.355 45.4403 30.0659 45.2383C28.7904 45.0355 27.9969 43.2335 26.8202 42.6314C25.6885 42.0552 23.7592 42.4841 22.8098 41.5344C21.8613 40.5823 22.291 38.6483 21.7111 37.5135C21.1151 36.336 19.3135 35.54 19.1127 34.2611C18.9111 32.971 20.3842 31.6559 20.5834 30.3609C20.6002 30.2555 20.5978 30.142 20.6002 30.0301L15.1875 35.4547C10.9515 39.6994 6.08088 42.9212 0.89545 45.157M0.89545 45.157H0.897056C0.895449 45.157 0.89545 45.157 0.89545 45.157Z" stroke="#1A73E8" stroke-width="1.87777" stroke-miterlimit="10" stroke-linecap="round" stroke-linejoin="round"/>
<path d="M84.6923 15.0129H92.4313V46.6525H84.6923V15.0129ZM124.213 33.7279V46.6525H116.474V33.7279C116.474 30.1606 114.823 27.7308 111.057 27.7308C107.342 27.7308 105.639 30.2123 105.639 33.7279V46.6525H97.9002V33.7279C97.9002 25.7663 103.369 20.5447 111.057 20.5447C119.053 20.5447 124.213 26.0247 124.213 33.7279ZM147.069 33.7279C147.069 29.8505 145.16 27.7308 141.239 27.7308C140.155 27.7308 139.226 27.8859 138.453 28.1961C137.008 28.8682 136.028 29.8505 135.563 31.4014C135.305 32.1252 135.202 32.9007 135.202 33.7279C135.202 34.555 135.305 35.3305 135.563 36.0543C135.976 37.5536 137.06 38.6392 138.453 39.2079C139.226 39.5698 140.155 39.7249 141.239 39.7249C145.16 39.7249 147.069 37.6053 147.069 33.7279ZM147.069 23.3881V10.4634H154.808V33.7279C154.808 41.9479 148.978 46.911 141.187 46.911C133.242 46.911 127.463 41.7412 127.463 33.8313C127.463 26.5417 132.829 20.5447 140.155 20.5447C142.89 20.5447 145.263 21.3202 147.069 23.3881ZM159.709 20.8032H167.448V46.6525H159.709V20.8032ZM163.579 18.3733C160.947 18.3733 159.09 16.5122 159.09 13.8756C159.09 11.1872 160.947 9.42947 163.579 9.42947C166.261 9.42947 168.016 11.1872 168.016 13.8756C168.016 16.6156 166.313 18.3733 163.579 18.3733ZM190.975 33.7279C190.768 29.9538 189.066 27.7308 185.145 27.7308C184.061 27.7308 183.132 27.8859 182.358 28.1961C179.985 29.2818 179.108 31.298 179.108 33.7796C179.108 34.6067 179.211 35.3822 179.469 36.0543C180.243 38.7426 182.565 39.7249 185.145 39.7249C189.066 39.7249 190.975 37.6053 190.975 33.7279ZM200.777 46.6525H193.038C192.522 45.3601 192.058 44.0676 191.748 42.7234C189.994 45.6185 187.311 46.911 184.009 46.911C176.632 46.911 171.369 40.7072 171.369 33.6245C171.369 25.4561 177.457 20.5447 185.145 20.5447C193.348 20.5447 198.507 25.818 198.714 33.7279C198.765 34.3999 198.765 35.1754 198.765 36.106C198.765 39.7249 199.333 43.3438 200.777 46.6525ZM243.497 27.2655V44.8431C239.833 46.2389 235.242 47.0144 231.321 47.0144C221.26 47.0144 214.501 40.9657 214.501 30.9878C214.501 20.0794 222.601 14.7544 232.507 14.7544C233.178 14.7544 233.9 14.7544 234.726 14.8061C235.5 14.8578 236.325 14.9612 237.202 15.0129C238.802 15.2197 240.401 15.4265 241.949 15.8918V23.8017C241.381 23.5432 240.762 23.3364 240.04 23.1296C239.266 22.9745 238.492 22.8194 237.667 22.6643C236.016 22.3541 234.261 22.2507 232.559 22.2507C226.006 22.2507 222.24 24.267 222.24 30.9878C222.24 37.5536 225.697 39.5181 231.579 39.5181C232.198 39.5181 232.868 39.4664 233.591 39.4147C234.261 39.363 234.984 39.3113 235.758 39.2596V34.4516H229.05V27.2655H243.497ZM266.198 33.7279V20.8032H273.937V45.3084C273.937 53.5284 268.055 58.5432 260.264 58.5432C257.53 58.5432 254.795 58.2847 252.164 57.4058V49.4443C254.383 50.6333 257.375 51.0469 259.852 51.0469C262.638 51.0469 264.856 50.2197 265.888 47.5314C266.094 46.8076 266.198 46.0321 266.198 45.2567V44.0676C264.443 46.0321 262.173 46.911 259.594 46.911C252.267 46.911 247.624 40.6038 247.624 33.7279V20.8032H255.363V33.7279C255.363 37.2434 256.756 39.7249 260.522 39.7249C264.185 39.7249 266.198 37.2951 266.198 33.7279ZM297.205 33.7279C296.999 29.9538 295.296 27.7308 291.375 27.7308C290.292 27.7308 289.363 27.8859 288.589 28.1961C286.216 29.2818 285.339 31.298 285.339 33.7796C285.339 34.6067 285.442 35.3822 285.7 36.0543C286.474 38.7426 288.795 39.7249 291.375 39.7249C295.296 39.7249 297.205 37.6053 297.205 33.7279ZM307.008 46.6525H299.269C298.753 45.3601 298.289 44.0676 297.979 42.7234C296.225 45.6185 293.542 46.911 290.24 46.911C282.862 46.911 277.6 40.7072 277.6 33.6245C277.6 25.4561 283.688 20.5447 291.375 20.5447C299.578 20.5447 304.738 25.818 304.944 33.7279C304.996 34.3999 304.996 35.1754 304.996 36.106C304.996 39.7249 305.563 43.3438 307.008 46.6525ZM328.213 33.7279C328.006 29.9538 326.304 27.7308 322.383 27.7308C321.299 27.7308 320.371 27.8859 319.597 28.1961C317.223 29.2818 316.346 31.298 316.346 33.7796C316.346 34.6067 316.449 35.3822 316.707 36.0543C317.481 38.7426 319.803 39.7249 322.383 39.7249C326.304 39.7249 328.213 37.6053 328.213 33.7279ZM338.016 46.6525H330.277C329.761 45.3601 329.296 44.0676 328.987 42.7234C327.233 45.6185 324.55 46.911 321.248 46.911C313.87 46.911 308.607 40.7072 308.607 33.6245C308.607 25.4561 314.695 20.5447 322.383 20.5447C330.586 20.5447 335.745 25.818 335.952 33.7279C336.003 34.3999 336.003 35.1754 336.003 36.106C336.003 39.7249 336.571 43.3438 338.016 46.6525ZM367.424 33.7279V46.6525H359.685V33.7279C359.685 30.1606 358.034 27.7308 354.267 27.7308C350.553 27.7308 348.85 30.2123 348.85 33.7279V46.6525H341.111V33.7279C341.111 25.7663 346.58 20.5447 354.267 20.5447C362.264 20.5447 367.424 26.0247 367.424 33.7279Z" fill="#444F5A"/>
</g>
</g>
<defs>
<clipPath id="clip0_1_2">
<rect width="367" height="66" fill="white"/>
</clipPath>
<clipPath id="clip1_1_2">
<rect width="367" height="66" fill="white"/>
</clipPath>
</defs>
</svg>
