<svg width="66" height="66" viewBox="0 0 66 66" fill="none" xmlns="http://www.w3.org/2000/svg">
<path d="M41.4472 22.8558C42.3934 23.8039 41.9669 25.7395 42.5452 26.8735C43.1427 28.0518 44.9459 28.8486 45.1435 30.1259C45.3467 31.4152 43.872 32.7319 43.6745 34.0261C43.4688 35.301 44.4696 37.0097 43.872 38.1887C43.2945 39.3252 41.3388 39.5248 40.391 40.4737C39.44 41.425 39.2424 43.3848 38.1107 43.9618C36.9332 44.563 35.2313 43.557 33.9526 43.759C32.6643 43.9618 31.3502 45.4395 30.0635 45.2375C28.788 45.0347 27.9937 43.2326 26.8202 42.6306C25.6861 42.0511 23.7576 42.4793 22.8082 41.5312C21.8589 40.5791 22.2886 38.6467 21.7127 37.5135C21.1111 36.3344 19.3111 35.5392 19.1103 34.2611C18.9071 32.9702 20.3818 31.6551 20.5834 30.3617C20.7858 29.0836 19.7842 27.3766 20.3818 26.1999C20.9601 25.0611 22.9135 24.8663 23.8644 23.9134C24.8122 22.9645 25.0098 21.0023 26.1447 20.4252C27.3174 19.8264 29.0234 20.8268 30.2996 20.6264C31.5888 20.4252 32.902 18.9475 34.1895 19.1495C35.465 19.3524 36.2602 21.1552 37.4368 21.7556C38.5685 22.3343 40.4978 21.9045 41.4472 22.8558Z" stroke="#1A73E8" stroke-width="1.88" stroke-miterlimit="10" stroke-linecap="round" stroke-linejoin="round"/>
<path d="M43.6745 34.0261C43.4688 35.301 44.4696 37.0097 43.872 38.1887C43.2945 39.3252 41.3388 39.5248 40.391 40.4737C39.44 41.425 39.2424 43.3848 38.1107 43.9618C36.9332 44.563 35.2313 43.557 33.9526 43.759C33.6 43.8145 33.2393 43.9699 32.8827 44.1558L45.174 56.4722L47.6591 47.755L56.3561 45.2673L44.068 32.9509C43.8817 33.3114 43.7259 33.6688 43.6745 34.0261Z" stroke="#1A73E8" stroke-width="1.88" stroke-miterlimit="10" stroke-linecap="round" stroke-linejoin="round"/>
<path d="M36.7879 36.8632C34.2152 39.4395 30.0426 39.4395 27.4684 36.8632C24.8949 34.2821 24.8949 30.1009 27.4684 27.5239C30.0418 24.9452 34.2144 24.9452 36.7879 27.5239C39.3605 30.1009 39.3605 34.2821 36.7879 36.8632Z" stroke="#1A73E8" stroke-width="1.88" stroke-miterlimit="10" stroke-linecap="round" stroke-linejoin="round"/>
<path d="M63.968 18.9652C62.6805 20.2554 57.4653 17.1189 52.32 11.9615C47.1732 6.80416 44.0431 1.57916 45.3314 0.29062C46.6182 -1.00114 51.8333 2.1345 56.9794 7.29189C62.1263 12.4493 65.2547 17.6743 63.968 18.9652Z" stroke="#1A73E8" stroke-width="1.88" stroke-miterlimit="10" stroke-linecap="round" stroke-linejoin="round"/>
<path d="M63.3624 19.2316C63.6106 19.1986 63.8186 19.1141 63.968 18.9652C63.7656 19.0481 63.5648 19.1463 63.3624 19.2316Z" stroke="#1A73E8" stroke-width="1.88" stroke-miterlimit="10" stroke-linecap="round" stroke-linejoin="round"/>
<path d="M45.0632 0.895043C45.1483 0.693029 45.2463 0.49343 45.3298 0.289001C45.1804 0.437091 45.0969 0.647154 45.0632 0.895043Z" stroke="#1A73E8" stroke-width="1.88" stroke-miterlimit="10" stroke-linecap="round" stroke-linejoin="round"/>
<path d="M29.9671 20.6417C30.0812 20.6401 30.1944 20.6417 30.2996 20.6248C31.5888 20.4236 32.902 18.9459 34.1895 19.1479C35.465 19.3507 36.2601 21.1536 37.4368 21.754C38.5677 22.3343 40.4986 21.9045 41.4464 22.855C42.3925 23.8031 41.966 25.7387 42.5443 26.8727C43.1419 28.051 44.9451 28.8478 45.1427 30.1251C45.3459 31.4144 43.8712 32.7311 43.6736 34.0245C43.6568 34.1315 43.6576 34.2434 43.6568 34.3577L49.0679 28.9347C53.3039 24.6884 58.1769 21.465 63.3616 19.23C61.4652 19.4908 56.8669 16.5185 52.3192 11.9599C47.7699 7.40134 44.8037 2.79526 45.064 0.893433C42.8335 6.08945 39.6167 10.9708 35.379 15.2163L29.9671 20.6417Z" stroke="#1A73E8" stroke-width="1.88" stroke-miterlimit="10" stroke-linecap="round" stroke-linejoin="round"/>
<path d="M19.1938 63.4904C19.1938 63.4944 19.1914 63.496 19.1914 63.4992C19.1754 63.6208 19.1481 63.7318 19.1047 63.8292C19.0613 63.9314 19.0011 64.0232 18.9256 64.1004C17.6389 65.3906 12.4253 62.2533 7.27925 57.0976C2.13237 51.9402 -0.997682 46.716 0.289037 45.4258C0.364537 45.3518 0.453692 45.2906 0.556501 45.248C0.652885 45.2053 0.763725 45.1771 0.882598 45.1602C0.886614 45.1602 0.891434 45.157 0.89545 45.157M19.1938 63.4904V63.4944C19.1938 63.4904 19.1938 63.4904 19.1938 63.4904ZM19.1938 63.4904C21.4243 58.2943 24.6395 53.4138 28.8764 49.1691L34.2883 43.7461C34.1759 43.7493 34.0634 43.7461 33.9574 43.763C32.6691 43.9626 31.355 45.4403 30.0659 45.2383C28.7904 45.0355 27.9969 43.2335 26.8202 42.6314C25.6885 42.0552 23.7592 42.4841 22.8098 41.5344C21.8613 40.5823 22.291 38.6483 21.7111 37.5135C21.1151 36.336 19.3135 35.54 19.1127 34.2611C18.9111 32.971 20.3842 31.6559 20.5834 30.3609C20.6002 30.2555 20.5978 30.142 20.6002 30.0301L15.1875 35.4547C10.9515 39.6994 6.08088 42.9212 0.89545 45.157M0.89545 45.157H0.897056C0.895449 45.157 0.89545 45.157 0.89545 45.157Z" stroke="#1A73E8" stroke-width="1.88" stroke-miterlimit="10" stroke-linecap="round" stroke-linejoin="round"/>
</svg>
