<svg width="500" height="500" viewBox="0 0 500 500" fill="none" xmlns="http://www.w3.org/2000/svg">
    <rect width="500" height="500" fill="#1A1A1A"/>
    <path d="M410.246 249.133C320.619 197.599 175.304 197.599 85.675 249.133C-3.953 300.667 -3.952 384.221 85.676 435.754C175.306 487.287 320.62 487.287 410.247 435.754C499.872 384.221 499.872 300.667 410.246 249.133Z" fill="#292929"/>
    <path d="M139.254 349.281C174.299 349.281 202.708 332.879 202.708 312.646C202.708 292.413 174.299 276.011 139.254 276.011C104.209 276.011 75.8 292.413 75.8 312.646C75.8 332.879 104.209 349.281 139.254 349.281Z" fill="#4F4F4F"/>
    <path d="M247.286 408.962L241.387 405.555L245.678 403.078C247.912 401.784 248.246 399.953 248.246 398.971C248.244 397.995 247.908 396.164 245.674 394.875L234.987 388.704C233.802 388.02 232.395 387.672 230.799 387.671C229.208 387.672 227.801 388.02 226.618 388.703L219.408 392.867L182.149 371.355C180.965 370.672 179.56 370.325 177.968 370.324C176.38 370.324 174.972 370.671 173.782 371.356L158.555 380.148C157.241 380.908 156.378 381.658 155.825 382.527C155.167 383.578 154.965 384.873 155.238 386.452L163.12 425.89C163.578 427.871 165.062 429.598 167.533 431.023L178.22 437.194C179.406 437.879 180.81 438.226 182.394 438.226H182.402C183.995 438.226 185.403 437.879 186.586 437.195L216.888 419.699L225.712 424.793C226.898 425.478 228.302 425.825 229.903 425.825C231.488 425.825 232.893 425.479 234.08 424.794L247.281 417.17C249.52 415.885 249.857 414.05 249.859 413.059C249.857 412.083 249.52 410.251 247.286 408.962ZM188.606 410.649L186.835 401.767L195.412 406.719L188.606 410.649Z" fill="#4F4F4F"/>
    <path d="M306.625 347.585C303.955 345.888 301.001 344.105 297.847 342.283C294.719 340.477 291.564 338.735 288.449 337.093C284.458 335.032 280.061 333.334 275.382 332.041C270.661 330.74 265.679 330.049 260.576 329.986L259.886 329.983C255.015 329.983 249.965 330.609 244.877 331.844C239.518 333.148 234.136 335.348 228.879 338.382C223.436 341.525 219.612 344.665 217.19 347.983C214.657 351.461 213.434 354.982 213.557 358.453C213.681 361.919 215.045 365.244 217.603 368.331C219.929 371.145 222.968 373.773 226.657 376.158C229.417 377.906 232.438 379.729 235.636 381.575C238.833 383.421 241.921 385.125 244.83 386.647C248.831 388.713 253.229 390.412 257.897 391.699C262.618 393.003 267.6 393.693 272.704 393.754L273.396 393.758C278.279 393.758 283.328 393.132 288.403 391.897C293.761 390.593 299.144 388.394 304.4 385.359C309.847 382.214 313.67 379.074 316.089 375.76C318.626 372.284 319.848 368.759 319.723 365.288C319.599 361.827 318.237 358.503 315.676 355.409C313.345 352.593 310.306 349.965 306.625 347.585ZM288.496 368.474C288.223 368.89 287.45 369.768 285.342 370.983C283.599 371.99 281.879 372.684 280.23 373.046C278.915 373.335 277.602 373.481 276.328 373.481C275.981 373.481 275.634 373.471 275.286 373.449C273.675 373.351 272.083 373.039 270.552 372.521C268.92 371.968 267.287 371.259 265.655 370.389C259.729 367.35 254.118 364.11 248.93 360.729C247.532 359.857 246.397 358.971 245.558 358.1C244.941 357.458 244.555 356.841 244.439 356.327C244.417 356.228 244.351 355.924 244.783 355.266C245.055 354.853 245.825 353.977 247.936 352.758C249.684 351.749 251.404 351.055 253.047 350.695C254.313 350.418 255.568 350.277 256.777 350.277C257.157 350.277 257.534 350.291 257.905 350.318C259.506 350.437 261.096 350.76 262.629 351.278C264.291 351.841 265.988 352.545 267.602 353.339C273.353 356.355 278.982 359.606 284.349 363.009C285.77 363.899 286.943 364.794 287.829 365.667C288.424 366.255 288.786 366.818 288.875 367.296C288.895 367.414 288.96 367.767 288.496 368.474Z" fill="#4F4F4F"/>
    <path d="M394.57 323.926L388.67 320.519L392.962 318.042C395.196 316.749 395.529 314.917 395.529 313.94C395.529 312.965 395.196 311.135 392.958 309.838L382.272 303.67C381.09 302.986 379.684 302.638 378.081 302.635C376.491 302.638 375.085 302.985 373.901 303.668L366.691 307.832L329.433 286.321C328.25 285.638 326.844 285.29 325.251 285.289C323.664 285.289 322.256 285.635 321.066 286.32L305.84 295.111C304.528 295.87 303.664 296.618 303.106 297.494C302.451 298.547 302.249 299.841 302.521 301.418L310.404 340.856C310.862 342.837 312.346 344.563 314.815 345.989L325.502 352.158C326.687 352.844 328.092 353.191 329.677 353.191H329.685C331.275 353.191 332.683 352.844 333.869 352.159L364.171 334.664L372.995 339.758C374.181 340.443 375.589 340.79 377.186 340.79C378.772 340.79 380.177 340.443 381.362 339.758L394.563 332.135C396.798 330.852 397.139 329.018 397.142 328.019C397.14 327.042 396.801 325.215 394.57 323.926ZM335.89 325.613L334.119 316.731L342.696 321.684L335.89 325.613Z" fill="#4F4F4F"/>
    <path d="M435.371 85.753L425.908 80.29C425.955 79.922 425.988 79.54 425.988 79.129V76.388C425.988 71.509 422.563 65.577 418.338 63.138C416.627 62.15 415.053 61.898 413.779 62.258C413.087 55.325 408.274 47.482 402.429 44.107C396.108 40.458 390.984 43.416 390.984 50.715V54.816C390.984 56.706 391.334 58.702 391.953 60.686L384.093 56.148C381.749 54.795 379.85 55.892 379.85 58.598C379.85 61.304 381.75 64.595 384.093 65.948L435.372 95.554C437.716 96.907 439.615 95.81 439.615 93.104C439.615 90.397 437.715 87.106 435.371 85.753Z" fill="#565656"/>
    <path d="M377.997 95.892L371.969 92.412C371.999 92.177 372.02 91.934 372.02 91.672V89.926C372.02 86.818 369.838 83.039 367.147 81.485C366.057 80.856 365.054 80.695 364.242 80.924C363.801 76.507 360.735 71.511 357.011 69.361C352.984 67.036 349.72 68.92 349.72 73.57V76.183C349.72 77.387 349.943 78.659 350.337 79.923L345.33 77.032C343.837 76.17 342.627 76.869 342.627 78.593C342.627 80.317 343.837 82.413 345.33 83.275L377.998 102.136C379.491 102.998 380.701 102.299 380.701 100.575C380.7 98.851 379.49 96.754 377.997 95.892Z" fill="#565656"/>
    <path d="M373.82 300.748C370.585 285.938 365.406 271.422 368.625 248.765C371.542 228.231 382.327 209.876 397.699 207.822C408.064 206.437 417.113 217.993 406.968 232.834C405.284 235.297 383.317 256.792 386.938 286.503L384.889 306.237L373.82 300.748Z" fill="#1A73E8"/>
    <g opacity="0.2">
    <path d="M373.82 300.748C370.585 285.938 365.406 271.422 368.625 248.765C371.542 228.231 382.327 209.876 397.699 207.822C408.064 206.437 417.113 217.993 406.968 232.834C405.284 235.297 383.317 256.792 386.938 286.503L384.889 306.237L373.82 300.748Z" fill="black"/>
    </g>
    <path d="M379.197 298.549C379.463 298.427 379.627 298.139 379.58 297.836C373.624 259.844 381.23 231.469 399.58 215.874C399.862 215.635 399.896 215.211 399.657 214.93C399.42 214.649 399.001 214.605 398.713 214.854C380.128 230.647 372.225 259.575 378.257 298.044C378.314 298.409 378.656 298.658 379.021 298.602C379.083 298.592 379.142 298.574 379.197 298.549Z" fill="white"/>
    <path d="M391.143 312.058C391.068 306.297 394.245 293.745 401.78 282.79C411.284 268.972 426.096 264.449 427.611 257.207C429.43 248.507 420.325 243.544 408.526 247.764C394.345 252.837 377.589 273.266 383.398 307.706L391.143 312.058Z" fill="#455A64"/>
    <path d="M387.266 305.974C387.522 305.874 387.708 305.633 387.724 305.34C389.322 274.771 407.476 258.764 416.85 254.57C417.213 254.408 417.375 253.982 417.213 253.619C417.051 253.255 416.639 253.088 416.262 253.256C405.895 257.893 387.917 274.064 386.285 305.266C386.264 305.662 386.57 306.002 386.967 306.023C387.072 306.027 387.173 306.01 387.266 305.974Z" fill="white"/>
    <path d="M244.655 401.337L231.445 408.959C230.709 409.392 229.797 409.602 228.721 409.602C227.645 409.602 226.745 409.392 226.009 408.959L215.721 403.02L183.958 421.362C183.222 421.783 182.31 422.005 181.234 422.005C180.159 422.005 179.258 421.783 178.51 421.362L167.825 415.19C166.071 414.185 165.066 413.097 164.797 411.928L156.929 372.578C156.882 372.321 156.871 372.087 156.871 371.877C156.871 372.637 156.859 382.457 156.871 382.936C156.871 383.123 156.894 383.322 156.929 383.544L164.797 422.894C165.066 424.063 166.071 425.15 167.825 426.156L178.51 432.328C179.258 432.749 180.158 432.971 181.234 432.971C182.31 432.971 183.222 432.749 183.958 432.328L215.721 413.986L226.009 419.925C226.745 420.358 227.646 420.568 228.721 420.568C229.796 420.568 230.708 420.358 231.445 419.925L244.655 412.303C245.392 411.87 245.766 411.356 245.766 410.725V399.759C245.766 400.378 245.392 400.904 244.655 401.337Z" fill="#1A73E8"/>
    <path d="M244.153 396.637V385.671C244.153 386.291 243.779 386.817 243.043 387.249L234.369 392.253L243.733 397.654C244.001 397.35 244.153 397.011 244.153 396.637Z" fill="#1A73E8"/>
    <path d="M184.017 395.094L190.587 398.905L200.091 393.422L181.538 382.702L184.005 395.094H184.017Z" fill="#1A73E8"/>
    <path opacity="0.35" d="M184.017 395.094L190.587 398.905L200.091 393.422L181.538 382.702L184.005 395.094H184.017Z" fill="black"/>
    <path opacity="0.2" d="M244.153 396.637V385.671C244.153 386.291 243.779 386.817 243.043 387.249L234.369 392.253L243.733 397.654C244.001 397.35 244.153 397.011 244.153 396.637Z" fill="black"/>
    <path opacity="0.2" d="M244.655 401.337L231.445 408.959C230.709 409.392 229.797 409.602 228.721 409.602V420.568C229.796 420.568 230.708 420.358 231.445 419.925L244.655 412.303C245.392 411.87 245.766 411.356 245.766 410.725V399.759C245.766 400.378 245.392 400.904 244.655 401.337Z" fill="black"/>
    <path opacity="0.25" d="M164.798 411.928L156.93 372.578C156.883 372.321 156.872 372.087 156.872 371.877C156.872 372.637 156.86 382.457 156.872 382.936C156.872 383.123 156.895 383.322 156.93 383.544L164.798 422.894C164.845 423.116 164.927 423.338 165.043 423.56V412.594C164.926 412.372 164.844 412.15 164.798 411.928Z" fill="black"/>
    <path opacity="0.35" d="M181.234 422.005C180.159 422.005 179.258 421.783 178.51 421.362L167.825 415.19C166.41 414.383 165.475 413.518 165.043 412.595V423.561C165.475 424.484 166.411 425.35 167.825 426.156L178.51 432.328C179.258 432.749 180.158 432.971 181.234 432.971C181.339 432.971 181.433 432.971 181.538 432.948V421.982C181.433 422.005 181.34 422.005 181.234 422.005Z" fill="black"/>
    <path opacity="0.2" d="M183.958 421.362C183.291 421.748 182.485 421.958 181.538 421.982V432.948C182.485 432.925 183.291 432.714 183.958 432.328L215.721 413.986V403.02L183.958 421.362Z" fill="black"/>
    <path opacity="0.35" d="M226.009 408.959L215.721 403.02V413.986L226.009 419.925C226.745 420.358 227.646 420.568 228.721 420.568V409.602C227.646 409.602 226.745 409.392 226.009 408.959Z" fill="black"/>
    <path d="M231.45 408.959C230.709 409.386 229.801 409.6 228.725 409.599C227.65 409.599 226.744 409.385 226.004 408.958L215.719 403.02L183.956 421.359C183.216 421.786 182.312 421.999 181.233 421.999C180.156 422 179.252 421.785 178.512 421.358L167.824 415.187C166.076 414.178 165.068 413.092 164.798 411.927L156.934 372.573C156.8 371.797 156.868 371.195 157.134 370.769C157.405 370.343 157.976 369.876 158.849 369.371L174.074 360.581C174.814 360.155 175.722 359.942 176.799 359.941C177.874 359.942 178.782 360.156 179.52 360.582L218.239 382.936L226.91 377.929C227.648 377.502 228.558 377.29 229.633 377.288C230.71 377.29 231.615 377.503 232.355 377.93L243.043 384.1C243.783 384.527 244.153 385.051 244.153 385.671C244.153 386.294 243.781 386.817 243.043 387.244L234.372 392.251L244.655 398.188C245.397 398.616 245.765 399.139 245.767 399.76C245.766 400.382 245.395 400.906 244.656 401.332L231.45 408.959ZM200.089 393.416L181.538 382.705L185.369 401.915L200.089 393.416Z" fill="#1A73E8"/>
    <path d="M315.64 352.646C315.593 355.288 314.553 357.989 312.554 360.736C310.403 363.682 306.814 366.616 301.764 369.527C296.725 372.438 291.652 374.507 286.543 375.758C281.434 376.997 276.442 377.593 271.567 377.535C266.704 377.477 262.004 376.822 257.503 375.583C253.002 374.344 248.829 372.731 244.994 370.743C242.107 369.235 239.09 367.563 235.922 365.739C232.766 363.915 229.808 362.138 227.049 360.385C223.624 358.175 220.83 355.767 218.69 353.172C216.527 350.565 215.405 347.864 215.311 345.047C215.37 346.789 215.241 354.095 215.311 356.013C215.404 358.83 216.527 361.531 218.69 364.138C220.829 366.733 223.623 369.141 227.049 371.351C229.808 373.105 232.766 374.881 235.922 376.705C239.09 378.529 242.106 380.2 244.994 381.72C248.829 383.696 253.002 385.309 257.503 386.548C262.004 387.787 266.704 388.442 271.567 388.5C276.442 388.559 281.434 387.962 286.543 386.723C291.652 385.472 296.725 383.403 301.764 380.492C306.814 377.581 310.403 374.647 312.554 371.701C314.705 368.755 315.734 365.867 315.628 363.062C315.57 361.449 315.675 355.136 315.64 352.646Z" fill="#1A73E8"/>
    <path opacity="0.35" d="M274.258 377.477C273.358 377.51 272.458 377.545 271.567 377.535C266.704 377.477 262.004 376.822 257.503 375.583C253.002 374.344 248.829 372.731 244.994 370.743C242.107 369.235 239.09 367.563 235.922 365.739C232.766 363.915 229.808 362.138 227.049 360.385C223.624 358.175 220.83 355.767 218.69 353.172C216.527 350.565 215.405 347.864 215.311 345.047C215.37 346.789 215.241 354.095 215.311 356.013C215.404 358.83 216.527 361.531 218.69 364.138C220.829 366.733 223.623 369.141 227.049 371.351C229.808 373.105 232.766 374.881 235.922 376.705C239.09 378.529 242.106 380.2 244.994 381.72C248.829 383.696 253.002 385.309 257.503 386.548C262.004 387.787 266.704 388.442 271.567 388.5C272.459 388.511 273.359 388.475 274.258 388.442V377.477Z" fill="black"/>
    <path opacity="0.2" d="M315.64 352.646C315.593 355.288 314.553 357.989 312.554 360.736C310.403 363.682 306.814 366.616 301.764 369.527C296.725 372.438 291.652 374.507 286.543 375.758C282.369 376.77 278.278 377.33 274.26 377.477V388.443C278.278 388.295 282.369 387.736 286.543 386.724C291.652 385.473 296.725 383.404 301.764 380.493C306.814 377.582 310.403 374.648 312.554 371.702C314.705 368.756 315.734 365.868 315.628 363.063C315.57 361.449 315.675 355.136 315.64 352.646Z" fill="black"/>
    <path d="M242.282 346.824C242.843 347.409 243.498 347.993 244.246 348.554C244.585 348.332 244.924 348.11 245.298 347.888C247.32 346.731 249.296 345.936 251.249 345.503C253.201 345.082 255.107 344.93 256.954 345.07C258.801 345.21 260.613 345.573 262.402 346.169C264.179 346.777 265.979 347.525 267.791 348.414C273.636 351.489 279.283 354.739 284.731 358.199C285.444 358.643 286.098 359.099 286.694 359.543C288.132 358.614 289.173 357.693 289.77 356.773C290.506 355.651 290.775 354.54 290.577 353.453C290.378 352.377 289.759 351.314 288.718 350.285C287.666 349.256 286.345 348.239 284.732 347.234C279.284 343.774 273.638 340.512 267.792 337.449C265.98 336.561 264.18 335.812 262.403 335.204C260.614 334.608 258.802 334.246 256.955 334.105C255.108 333.965 253.202 334.117 251.25 334.538C249.298 334.97 247.322 335.765 245.299 336.923C243.288 338.092 241.909 339.238 241.172 340.36C240.436 341.482 240.178 342.581 240.412 343.645C240.657 344.72 241.277 345.772 242.282 346.824Z" fill="#1A73E8"/>
    <path opacity="0.35" d="M242.282 346.824C242.843 347.409 243.498 347.993 244.246 348.554C244.585 348.332 244.924 348.11 245.298 347.888C247.32 346.731 249.296 345.936 251.249 345.503C253.201 345.082 255.107 344.93 256.954 345.07C258.801 345.21 260.613 345.573 262.402 346.169C264.179 346.777 265.979 347.525 267.791 348.414C273.636 351.489 279.283 354.739 284.731 358.199C285.444 358.643 286.098 359.099 286.694 359.543C288.132 358.614 289.173 357.693 289.77 356.773C290.506 355.651 290.775 354.54 290.577 353.453C290.378 352.377 289.759 351.314 288.718 350.285C287.666 349.256 286.345 348.239 284.732 347.234C279.284 343.774 273.638 340.512 267.792 337.449C265.98 336.561 264.18 335.812 262.403 335.204C260.614 334.608 258.802 334.246 256.955 334.105C255.108 333.965 253.202 334.117 251.25 334.538C249.298 334.97 247.322 335.765 245.299 336.923C243.288 338.092 241.909 339.238 241.172 340.36C240.436 341.482 240.178 342.581 240.412 343.645C240.657 344.72 241.277 345.772 242.282 346.824Z" fill="black"/>
    <path d="M229.171 327.611C234.212 324.7 239.29 322.624 244.398 321.381C249.506 320.141 254.499 319.549 259.371 319.606C264.242 319.666 268.933 320.315 273.436 321.557C277.94 322.8 282.107 324.41 285.94 326.388C288.964 327.982 292.057 329.688 295.216 331.512C298.375 333.336 301.264 335.083 303.888 336.75C307.315 338.963 310.105 341.37 312.256 343.969C314.408 346.569 315.533 349.278 315.635 352.089C315.736 354.903 314.711 357.786 312.561 360.734C310.408 363.683 306.812 366.615 301.771 369.525C296.73 372.436 291.654 374.511 286.545 375.754C281.439 376.996 276.446 377.587 271.572 377.529C266.7 377.472 262.008 376.822 257.508 375.578C253.002 374.337 248.835 372.726 245.002 370.748C242.111 369.234 239.089 367.566 235.929 365.741C232.769 363.917 229.81 362.132 227.053 360.385C223.626 358.172 220.836 355.767 218.687 353.165C216.533 350.567 215.41 347.859 215.308 345.045C215.208 342.232 216.233 339.35 218.382 336.401C220.535 333.452 224.13 330.521 229.171 327.611ZM284.729 347.229C279.283 343.776 273.637 340.516 267.789 337.449C265.976 336.557 264.175 335.81 262.396 335.207C260.614 334.606 258.799 334.238 256.95 334.101C255.103 333.966 253.2 334.111 251.252 334.538C249.302 334.965 247.322 335.761 245.303 336.925C243.288 338.089 241.909 339.234 241.17 340.36C240.431 341.486 240.179 342.583 240.413 343.649C240.651 344.717 241.272 345.773 242.279 346.822C243.288 347.87 244.599 348.9 246.212 349.907C251.454 353.323 257.102 356.584 263.152 359.687C264.899 360.619 266.664 361.384 268.446 361.986C270.224 362.588 272.058 362.948 273.94 363.062C275.824 363.179 277.739 363.024 279.688 362.596C281.638 362.169 283.622 361.374 285.637 360.209C287.655 359.045 289.031 357.9 289.77 356.774C290.509 355.65 290.78 354.543 290.577 353.456C290.375 352.37 289.753 351.312 288.713 350.284C287.668 349.258 286.341 348.239 284.729 347.229Z" fill="#1A73E8"/>
    <path d="M391.939 316.301L378.729 323.923C377.993 324.355 377.081 324.566 376.005 324.566C374.929 324.566 374.029 324.356 373.293 323.923L363.005 317.984L331.242 336.326C330.505 336.747 329.594 336.969 328.518 336.969C327.443 336.969 326.542 336.747 325.794 336.326L315.109 330.153C313.355 329.148 312.35 328.06 312.081 326.891L304.213 287.541C304.166 287.284 304.155 287.05 304.155 286.84C304.155 287.6 304.143 297.42 304.155 297.899C304.155 298.086 304.178 298.285 304.213 298.507L312.081 337.857C312.35 339.026 313.355 340.113 315.109 341.119L325.794 347.292C326.542 347.713 327.442 347.935 328.518 347.935C329.594 347.935 330.505 347.713 331.242 347.292L363.005 328.95L373.293 334.889C374.03 335.321 374.93 335.532 376.005 335.532C377.08 335.532 377.992 335.322 378.729 334.889L391.939 327.267C392.676 326.835 393.05 326.32 393.05 325.689V314.723C393.05 315.342 392.676 315.868 391.939 316.301Z" fill="#1A73E8"/>
    <path d="M391.436 311.601V300.635C391.436 301.255 391.062 301.781 390.325 302.213L381.651 307.217L391.015 312.618C391.284 312.314 391.436 311.975 391.436 311.601Z" fill="#1A73E8"/>
    <path d="M331.301 310.058L337.87 313.869L347.375 308.386L328.822 297.666L331.289 310.058H331.301Z" fill="#1A73E8"/>
    <path opacity="0.35" d="M331.301 310.058L337.87 313.869L347.375 308.386L328.822 297.666L331.289 310.058H331.301Z" fill="black"/>
    <path opacity="0.2" d="M391.436 311.601V300.635C391.436 301.255 391.062 301.781 390.325 302.213L381.651 307.217L391.015 312.618C391.284 312.314 391.436 311.975 391.436 311.601Z" fill="black"/>
    <path opacity="0.2" d="M391.939 316.301L378.729 323.923C377.993 324.355 377.081 324.566 376.005 324.566V335.532C377.08 335.532 377.992 335.322 378.729 334.889L391.939 327.267C392.676 326.835 393.05 326.32 393.05 325.689V314.723C393.05 315.342 392.676 315.868 391.939 316.301Z" fill="black"/>
    <path opacity="0.25" d="M312.081 326.892L304.213 287.542C304.166 287.285 304.155 287.051 304.155 286.841C304.155 287.601 304.143 297.421 304.155 297.9C304.155 298.087 304.178 298.286 304.213 298.508L312.081 337.858C312.128 338.08 312.21 338.302 312.326 338.524V327.558C312.21 327.336 312.128 327.114 312.081 326.892Z" fill="black"/>
    <path opacity="0.35" d="M328.518 336.97C327.443 336.97 326.542 336.748 325.794 336.327L315.109 330.154C313.694 329.347 312.759 328.482 312.327 327.559V338.525C312.759 339.449 313.695 340.314 315.109 341.12L325.794 347.293C326.542 347.714 327.442 347.936 328.518 347.936C328.623 347.936 328.717 347.936 328.822 347.913V336.947C328.717 336.97 328.623 336.97 328.518 336.97Z" fill="black"/>
    <path opacity="0.2" d="M331.242 336.327C330.575 336.713 329.769 336.923 328.822 336.947V347.913C329.769 347.89 330.576 347.679 331.242 347.293L363.005 328.951V317.985L331.242 336.327Z" fill="black"/>
    <path opacity="0.35" d="M373.293 323.923L363.005 317.984V328.95L373.293 334.889C374.03 335.321 374.93 335.532 376.005 335.532V324.566C374.929 324.566 374.029 324.355 373.293 323.923Z" fill="black"/>
    <path d="M378.734 323.923C377.993 324.35 377.085 324.564 376.009 324.563C374.934 324.563 374.028 324.349 373.288 323.922L363.003 317.984L331.24 336.323C330.5 336.75 329.596 336.963 328.517 336.963C327.44 336.964 326.536 336.749 325.796 336.322L315.108 330.151C313.36 329.142 312.352 328.056 312.082 326.891L304.218 287.538C304.084 286.762 304.152 286.16 304.418 285.734C304.689 285.307 305.26 284.841 306.133 284.336L321.358 275.546C322.098 275.121 323.006 274.907 324.083 274.906C325.158 274.907 326.066 275.121 326.804 275.547L365.523 297.901L374.194 292.894C374.932 292.467 375.842 292.255 376.917 292.253C377.994 292.255 378.899 292.468 379.639 292.895L390.327 299.065C391.067 299.492 391.437 300.016 391.437 300.636C391.437 301.259 391.065 301.782 390.327 302.209L381.656 307.216L391.939 313.153C392.68 313.581 393.049 314.104 393.051 314.725C393.05 315.347 392.679 315.871 391.94 316.297L378.734 323.923ZM347.372 308.38L328.821 297.669L332.652 316.879L347.372 308.38Z" fill="#1A73E8"/>
    <path d="M310.379 409.165C310.604 409.034 310.881 408.97 311.209 408.97C311.536 408.97 311.812 409.035 312.037 409.165L315.295 411.046C315.521 411.176 315.634 411.336 315.633 411.525C315.633 411.714 315.521 411.875 315.295 412.004L300.729 420.414C300.503 420.544 300.227 420.609 299.899 420.608C299.572 420.609 299.295 420.544 299.069 420.414L279.217 408.952C278.992 408.822 278.879 408.663 278.878 408.473C278.879 408.284 278.991 408.124 279.217 407.995L293.538 399.726C293.763 399.596 294.04 399.531 294.367 399.531C294.696 399.531 294.973 399.596 295.198 399.726L298.456 401.607C298.681 401.737 298.792 401.896 298.793 402.086C298.792 402.275 298.681 402.436 298.455 402.565L288.989 408.03L292.308 409.946L301.098 404.872C301.323 404.742 301.599 404.677 301.928 404.677C302.255 404.677 302.532 404.743 302.756 404.872L306.014 406.753C306.24 406.883 306.353 407.043 306.352 407.232C306.353 407.422 306.24 407.582 306.014 407.711L297.225 412.785L300.667 414.772L310.379 409.165Z" fill="#B3D4E3"/>
    <path d="M315.233 393.586C315.458 393.456 315.736 393.392 316.063 393.392C316.39 393.392 316.667 393.456 316.894 393.587L319.998 395.379C320.223 395.509 320.334 395.668 320.335 395.858C320.334 396.047 320.223 396.208 319.998 396.337L317.201 397.951C315.316 399.04 315.315 400.128 317.201 401.216L324.761 405.581C324.987 405.711 325.1 405.871 325.099 406.06C325.099 406.249 324.987 406.41 324.761 406.539L320.889 408.774C320.664 408.905 320.387 408.969 320.059 408.969C319.732 408.969 319.455 408.904 319.229 408.774L304.909 400.506C304.682 400.375 304.57 400.216 304.57 400.026C304.571 399.837 304.682 399.677 304.908 399.547L308.473 397.488C308.698 397.358 308.975 397.294 309.302 397.294C309.63 397.294 309.907 397.358 310.133 397.489L310.839 397.896C310.86 397.365 311.059 396.824 311.438 396.273C311.817 395.723 312.467 395.181 313.389 394.649L315.233 393.586Z" fill="#B3D4E3"/>
    <path d="M330.107 384.999C330.332 384.868 330.61 384.804 330.937 384.804C331.265 384.804 331.541 384.868 331.768 384.999L334.872 386.791C335.098 386.921 335.209 387.081 335.209 387.27C335.209 387.459 335.098 387.62 334.872 387.749L332.075 389.363C330.19 390.452 330.189 391.54 332.075 392.628L339.635 396.993C339.861 397.123 339.974 397.283 339.973 397.471C339.973 397.661 339.861 397.821 339.635 397.951L335.763 400.186C335.537 400.317 335.261 400.381 334.933 400.381C334.606 400.382 334.328 400.316 334.104 400.186L319.784 391.918C319.557 391.787 319.444 391.628 319.444 391.439C319.445 391.25 319.556 391.09 319.782 390.96L323.347 388.902C323.572 388.772 323.85 388.708 324.176 388.707C324.504 388.707 324.78 388.772 325.007 388.902L325.713 389.31C325.734 388.778 325.934 388.237 326.313 387.686C326.692 387.136 327.342 386.595 328.264 386.063L330.107 384.999Z" fill="#B3D4E3"/>
    <path d="M356.537 377.617C356.865 377.783 357.269 378.005 357.751 378.282C358.233 378.561 358.616 378.795 358.904 378.983C359.845 379.575 360.543 380.237 360.994 380.97C361.443 381.703 361.635 382.464 361.563 383.25C361.49 384.037 361.131 384.829 360.486 385.627C359.841 386.426 358.892 387.186 357.643 387.907C356.393 388.629 355.077 389.176 353.695 389.549C352.311 389.921 350.939 390.129 349.578 390.17C348.215 390.212 346.897 390.102 345.627 389.842C344.357 389.581 343.21 389.179 342.186 388.635C341.858 388.47 341.455 388.248 340.972 387.97C340.491 387.692 340.107 387.458 339.819 387.269C338.857 386.69 338.149 386.033 337.7 385.299C337.249 384.567 337.064 383.803 337.146 383.011C337.228 382.218 337.587 381.42 338.222 380.616C338.857 379.811 339.799 379.049 341.049 378.327C342.299 377.605 343.62 377.061 345.014 376.694C346.408 376.328 347.789 376.121 349.162 376.073C350.534 376.026 351.851 376.136 353.111 376.402C354.37 376.668 355.513 377.073 356.537 377.617ZM347.564 385.353C348.404 385.767 349.294 385.957 350.237 385.92C351.179 385.885 352.061 385.631 352.88 385.157C353.699 384.684 354.14 384.176 354.201 383.632C354.262 383.088 353.934 382.573 353.218 382.088C352.951 381.887 352.624 381.674 352.234 381.449C351.845 381.224 351.476 381.035 351.129 380.881C350.288 380.467 349.399 380.278 348.456 380.314C347.512 380.35 346.631 380.604 345.811 381.077C344.992 381.551 344.551 382.059 344.491 382.603C344.43 383.147 344.757 383.662 345.474 384.147C345.74 384.348 346.068 384.561 346.456 384.786C346.847 385.01 347.215 385.2 347.564 385.353Z" fill="#B3D4E3"/>
    <path d="M364.527 365.125C364.753 364.995 365.03 364.931 365.357 364.93C365.685 364.931 365.962 364.995 366.188 365.126L369.292 366.918C369.518 367.048 369.629 367.207 369.629 367.397C369.629 367.586 369.518 367.747 369.292 367.876L366.495 369.49C364.61 370.579 364.609 371.667 366.495 372.755L374.055 377.12C374.28 377.25 374.394 377.41 374.393 377.598C374.393 377.788 374.281 377.948 374.055 378.078L370.183 380.313C369.957 380.443 369.681 380.508 369.353 380.508C369.026 380.508 368.749 380.444 368.524 380.313L354.204 372.045C353.977 371.914 353.864 371.755 353.864 371.566C353.865 371.377 353.976 371.216 354.202 371.087L357.767 369.028C357.993 368.898 358.27 368.834 358.596 368.834C358.924 368.834 359.201 368.898 359.428 369.029L360.133 369.436C360.154 368.905 360.354 368.364 360.733 367.813C361.112 367.263 361.762 366.722 362.684 366.189L364.527 365.125Z" fill="#B3D4E3"/>
    <path d="M152.588 274.36C148.372 274.191 146.506 274.609 147.161 279.071C147.817 283.533 148.008 286.967 148.008 286.967C148.008 286.967 155.521 287.185 159.004 285.239C162.488 283.294 158.93 274.614 152.588 274.36Z" fill="#27DEBF"/>
    <path opacity="0.5" d="M152.588 274.36C148.372 274.191 146.506 274.609 147.161 279.071C147.817 283.533 148.008 286.967 148.008 286.967C148.008 286.967 155.521 287.185 159.004 285.239C162.488 283.294 158.93 274.614 152.588 274.36Z" fill="black"/>
    <path d="M153.264 293.518C152.991 293.518 152.714 293.491 152.437 293.436C150.135 292.982 148.637 290.748 149.092 288.446C150.185 282.908 151.263 278.631 152.215 274.857C153.603 269.355 154.7 265.008 155.368 258.875C156.414 249.274 153.377 240.109 150.186 234.732C148.989 232.715 149.654 230.108 151.671 228.911C153.685 227.714 156.295 228.378 157.492 230.396C159.38 233.577 165.416 245.098 163.814 259.795C163.082 266.515 161.864 271.344 160.454 276.935C159.527 280.608 158.477 284.771 157.427 290.091C157.028 292.116 155.252 293.518 153.264 293.518Z" fill="#455A64"/>
    <path d="M143.104 299.261C143.104 299.261 142.697 301.042 143.075 301.749C143.665 302.851 146.93 304.2 148.65 304.91C150.37 305.62 152.265 306.666 154.068 309.944C155.995 313.447 159.492 315.826 163.403 317.312C167.314 318.798 173.009 319.571 179.698 317.9C186.386 316.229 186.667 312.202 186.667 312.202C186.667 312.202 186.772 308.424 185.047 307.944C183.322 307.463 143.104 299.261 143.104 299.261Z" fill="#455A64"/>
    <path d="M145.801 285.22C145.611 286.409 145.341 287.585 144.991 288.737C144.028 291.91 142.439 295.175 143.104 299.26C144.203 301.218 146.495 301.957 148.218 302.721C150.533 303.748 152.193 304.428 153.849 306.429C156.822 310.02 159.656 314.562 168.641 315.728C177.625 316.894 184.164 313.626 185.633 310.993C187.102 308.36 185.446 306.082 179.559 303.396C176.57 302.032 169.751 296.423 168.967 295.681C168.206 294.961 167.641 294.124 167.05 293.269C165.856 291.542 164.942 289.348 164.651 287.282C164.378 285.352 164.479 282.851 164.976 280.447C165.082 279.931 165.339 279.395 165.12 278.916C164.545 277.661 162.576 277.993 161.492 278.079C159.857 278.208 158.25 278.557 156.651 278.906C156.133 279.019 155.584 279.148 155.208 279.522C154.845 279.882 154.708 280.405 154.576 280.898C154.375 281.65 154.152 282.396 153.907 283.135C153.737 283.648 153.513 284.207 153.026 284.439C152.544 284.668 151.937 284.475 151.574 284.085C151.211 283.694 151.059 283.148 151.025 282.616C150.99 282.084 151.061 281.551 151.081 281.018C151.101 280.508 151.066 279.969 150.793 279.538C150.204 278.609 148.709 278.465 148.332 277.432C148.13 276.879 148.357 276.231 148.784 275.825C149.211 275.419 149.803 275.227 150.389 275.165C150.975 275.103 151.507 275.122 152.146 275.14L152.457 273.905C150.931 273.764 149.755 273.82 148.371 274.419C147.633 274.738 146.809 275.423 146.499 276.184C145.954 277.523 146.284 278.636 146.351 279.248C146.608 281.605 146.175 282.878 145.801 285.22Z" fill="#1A73E8"/>
    <path opacity="0.35" d="M145.801 285.22C145.611 286.409 145.341 287.585 144.991 288.737C144.028 291.91 142.439 295.175 143.104 299.26C144.203 301.218 146.495 301.957 148.218 302.721C150.533 303.748 152.193 304.428 153.849 306.429C156.822 310.02 159.656 314.562 168.641 315.728C177.625 316.894 184.164 313.626 185.633 310.993C187.102 308.36 185.446 306.082 179.559 303.396C176.57 302.032 169.751 296.423 168.967 295.681C168.206 294.961 167.641 294.124 167.05 293.269C165.856 291.542 164.942 289.348 164.651 287.282C164.378 285.352 164.479 282.851 164.976 280.447C165.082 279.931 165.339 279.395 165.12 278.916C164.545 277.661 162.576 277.993 161.492 278.079C159.857 278.208 158.25 278.557 156.651 278.906C156.133 279.019 155.584 279.148 155.208 279.522C154.845 279.882 154.708 280.405 154.576 280.898C154.375 281.65 154.152 282.396 153.907 283.135C153.737 283.648 153.513 284.207 153.026 284.439C152.544 284.668 151.937 284.475 151.574 284.085C151.211 283.694 151.059 283.148 151.025 282.616C150.99 282.084 151.061 281.551 151.081 281.018C151.101 280.508 151.066 279.969 150.793 279.538C150.204 278.609 148.709 278.465 148.332 277.432C148.13 276.879 148.357 276.231 148.784 275.825C149.211 275.419 149.803 275.227 150.389 275.165C150.975 275.103 151.507 275.122 152.146 275.14L152.457 273.905C150.931 273.764 149.755 273.82 148.371 274.419C147.633 274.738 146.809 275.423 146.499 276.184C145.954 277.523 146.284 278.636 146.351 279.248C146.608 281.605 146.175 282.878 145.801 285.22Z" fill="black"/>
    <path d="M162.679 314.172C162.679 314.172 162.22 307.8 168.676 303.934C175.132 300.068 179.341 301.999 181.485 303.334C184.038 304.924 187.768 308.35 185.83 311.15C183.737 314.174 180.171 315.784 173.356 316.322C166.542 316.86 162.679 314.172 162.679 314.172Z" fill="#FAFAFA"/>
    <path d="M153.781 290.955C154.016 290.977 154.257 290.895 154.424 290.714C155.31 289.756 160.718 286.487 164.812 288.169C164.91 288.014 165.081 287.02 164.585 286.713C159.057 285.327 154.334 288.572 153.266 289.73C152.986 290.033 153.019 290.499 153.338 290.77C153.467 290.88 153.622 290.94 153.781 290.955Z" fill="#FAFAFA"/>
    <path d="M166.527 292.492C166.538 291.778 166.12 291.143 165.868 290.965C161.211 290.297 156.529 293.228 155.505 294.338C155.225 294.641 155.259 295.106 155.579 295.377C155.709 295.487 155.863 295.547 156.022 295.562C156.257 295.583 156.498 295.501 156.665 295.32C157.523 294.388 162.846 291.299 166.527 292.492Z" fill="#FAFAFA"/>
    <path d="M173.583 299.418C173.513 298.941 172.569 298.218 171.786 298.019C166.637 297.665 162.289 301.588 161.438 302.888C161.212 303.233 161.322 303.688 161.682 303.901C161.828 303.988 161.991 304.022 162.149 304.01C162.384 303.992 162.609 303.872 162.743 303.666C163.498 302.514 168.699 298.119 173.583 299.418Z" fill="#FAFAFA"/>
    <path d="M158.696 300.041C158.932 300.035 159.162 299.925 159.306 299.725C160.063 298.68 164.577 294.721 169.229 295.916C169.261 295.508 168.407 294.704 167.993 294.588C163.376 294.17 158.924 297.662 158.038 298.885C157.796 299.219 157.884 299.678 158.233 299.908C158.376 300.004 158.537 300.045 158.696 300.041Z" fill="#FAFAFA"/>
    <path d="M105.662 289.114C101.457 288.768 99.575 289.107 100.042 293.593C100.509 298.079 100.557 301.517 100.557 301.517C100.557 301.517 108.054 302.051 111.616 300.253C115.178 298.456 111.987 289.634 105.662 289.114Z" fill="#27DEBF"/>
    <path opacity="0.5" d="M105.662 289.114C101.457 288.768 99.575 289.107 100.042 293.593C100.509 298.079 100.557 301.517 100.557 301.517C100.557 301.517 108.054 302.051 111.616 300.253C115.178 298.456 111.987 289.634 105.662 289.114Z" fill="black"/>
    <path d="M105.532 308.283C105.26 308.272 104.984 308.233 104.709 308.166C102.428 307.616 101.025 305.32 101.577 303.04C102.902 297.553 104.159 293.325 105.269 289.595C106.887 284.156 108.165 279.859 109.091 273.76C110.539 264.211 107.89 254.927 104.929 249.42C103.818 247.354 104.592 244.778 106.658 243.666C108.72 242.555 111.3 243.328 112.412 245.395C114.165 248.652 119.711 260.417 117.493 275.034C116.479 281.717 115.059 286.49 113.415 292.017C112.334 295.648 111.11 299.763 109.837 305.034C109.351 307.04 107.518 308.367 105.532 308.283Z" fill="#455A64"/>
    <path d="M95.139 313.594C95.139 313.594 94.657 315.356 95.006 316.078C95.549 317.203 98.754 318.689 100.443 319.47C102.132 320.252 103.981 321.376 105.645 324.727C107.423 328.308 110.817 330.832 114.662 332.481C118.507 334.13 124.165 335.142 130.917 333.754C137.669 332.366 138.12 328.354 138.12 328.354C138.12 328.354 138.384 324.584 136.68 324.032C134.976 323.48 95.139 313.594 95.139 313.594Z" fill="#455A64"/>
    <path d="M98.424 299.678C98.184 300.858 97.865 302.022 97.467 303.158C96.371 306.287 94.646 309.483 95.139 313.593C96.154 315.596 98.414 316.43 100.103 317.266C102.373 318.39 104.002 319.138 105.573 321.207C108.393 324.92 111.033 329.577 119.961 331.12C128.889 332.663 135.559 329.672 137.137 327.103C138.716 324.534 137.157 322.189 131.387 319.257C128.458 317.769 121.881 311.878 121.129 311.104C120.399 310.353 119.87 309.492 119.316 308.613C118.196 306.837 117.375 304.607 117.17 302.53C116.979 300.59 117.185 298.096 117.782 295.714C117.91 295.204 118.189 294.678 117.99 294.191C117.468 292.913 115.487 293.162 114.4 293.202C112.761 293.262 111.141 293.543 109.529 293.824C109.006 293.915 108.453 294.021 108.061 294.379C107.684 294.724 107.525 295.24 107.372 295.728C107.139 296.471 106.885 297.207 106.609 297.935C106.418 298.44 106.171 298.99 105.674 299.2C105.183 299.408 104.584 299.191 104.238 298.785C103.892 298.379 103.763 297.827 103.751 297.294C103.739 296.761 103.832 296.232 103.874 295.7C103.915 295.191 103.903 294.651 103.648 294.209C103.099 293.256 101.611 293.049 101.278 292.001C101.1 291.44 101.353 290.802 101.797 290.415C102.241 290.028 102.84 289.861 103.428 289.823C104.016 289.785 104.546 289.827 105.184 289.872L105.547 288.651C104.028 288.446 102.851 288.453 101.443 288.992C100.692 289.28 99.84 289.93 99.499 290.677C98.898 291.992 99.181 293.118 99.222 293.733C99.382 296.101 98.896 297.354 98.424 299.678Z" fill="#1A73E8"/>
    <path opacity="0.35" d="M98.424 299.678C98.184 300.858 97.865 302.022 97.467 303.158C96.371 306.287 94.646 309.483 95.139 313.593C96.154 315.596 98.414 316.43 100.103 317.266C102.373 318.39 104.002 319.138 105.573 321.207C108.393 324.92 111.033 329.577 119.961 331.12C128.889 332.663 135.559 329.672 137.137 327.103C138.716 324.534 137.157 322.189 131.387 319.257C128.458 317.769 121.881 311.878 121.129 311.104C120.399 310.353 119.87 309.492 119.316 308.613C118.196 306.837 117.375 304.607 117.17 302.53C116.979 300.59 117.185 298.096 117.782 295.714C117.91 295.204 118.189 294.678 117.99 294.191C117.468 292.913 115.487 293.162 114.4 293.202C112.761 293.262 111.141 293.543 109.529 293.824C109.006 293.915 108.453 294.021 108.061 294.379C107.684 294.724 107.525 295.24 107.372 295.728C107.139 296.471 106.885 297.207 106.609 297.935C106.418 298.44 106.171 298.99 105.674 299.2C105.183 299.408 104.584 299.191 104.238 298.785C103.892 298.379 103.763 297.827 103.751 297.294C103.739 296.761 103.832 296.232 103.874 295.7C103.915 295.191 103.903 294.651 103.648 294.209C103.099 293.256 101.611 293.049 101.278 292.001C101.1 291.44 101.353 290.802 101.797 290.415C102.241 290.028 102.84 289.861 103.428 289.823C104.016 289.785 104.546 289.827 105.184 289.872L105.547 288.651C104.028 288.446 102.851 288.453 101.443 288.992C100.692 289.28 99.84 289.93 99.499 290.677C98.898 291.992 99.181 293.118 99.222 293.733C99.382 296.101 98.896 297.354 98.424 299.678Z" fill="black"/>
    <path d="M114.07 329.315C114.07 329.315 113.879 322.929 120.492 319.338C127.105 315.747 131.229 317.853 133.315 319.278C135.799 320.974 139.381 324.554 137.328 327.27C135.11 330.204 131.479 331.662 124.648 331.913C117.816 332.163 114.07 329.315 114.07 329.315Z" fill="#FAFAFA"/>
    <path d="M106.156 305.745C106.39 305.776 106.635 305.705 106.809 305.531C107.734 304.611 113.275 301.573 117.295 303.425C117.399 303.275 117.612 302.288 117.129 301.961C111.664 300.344 106.808 303.387 105.693 304.499C105.4 304.79 105.414 305.257 105.722 305.541C105.846 305.656 105.998 305.723 106.156 305.745Z" fill="#FAFAFA"/>
    <path d="M118.826 307.815C118.867 307.102 118.476 306.45 118.232 306.262C113.608 305.399 108.806 308.13 107.736 309.196C107.444 309.487 107.458 309.953 107.766 310.238C107.891 310.353 108.043 310.42 108.201 310.441C108.435 310.472 108.679 310.401 108.853 310.227C109.751 309.332 115.198 306.469 118.826 307.815Z" fill="#FAFAFA"/>
    <path d="M125.584 315.032C125.534 314.552 124.621 313.791 123.848 313.559C118.718 312.989 114.209 316.726 113.304 317.989C113.063 318.324 113.155 318.783 113.505 319.012C113.647 319.105 113.808 319.146 113.968 319.141C114.204 319.133 114.433 319.022 114.576 318.822C115.378 317.702 120.759 313.529 125.584 315.032Z" fill="#FAFAFA"/>
    <path d="M110.685 315.029C110.921 315.033 111.155 314.932 111.308 314.739C112.108 313.727 116.785 309.961 121.383 311.351C121.432 310.945 120.613 310.105 120.204 309.973C115.608 309.362 111.014 312.663 110.077 313.848C109.821 314.172 109.89 314.634 110.229 314.879C110.366 314.978 110.525 315.026 110.685 315.029Z" fill="#FAFAFA"/>
    <path d="M214.064 215.395C210.001 215.395 204.939 213.972 199.324 210.137C197.941 209.192 197.585 207.303 198.53 205.92C199.476 204.535 201.364 204.182 202.747 205.126C210.313 210.294 215.723 209.688 217.73 208.516C218.544 208.039 219.148 206.914 219.385 205.429C219.859 202.463 218.877 197.612 214.699 192.895C205.86 182.91 194.77 177.778 177.615 175.735C175.951 175.537 174.763 174.027 174.961 172.363C175.159 170.699 176.665 169.506 178.333 169.709C196.845 171.914 209.463 177.825 219.244 188.872C223.982 194.223 226.275 200.77 225.378 206.387C224.846 209.72 223.218 212.337 220.794 213.756C219.096 214.746 216.808 215.395 214.064 215.395Z" fill="#455A64"/>
    <path d="M175.684 137.576C180.274 133.253 184.318 120.535 182.232 107.173C180.146 93.811 167.798 81.315 162.881 78.612C157.964 75.909 154.504 79.405 155.841 84.386C157.66 91.162 159.927 106.406 147.281 113.119C147.281 113.119 149.153 123.072 155.67 130.973C162.187 138.874 175.684 137.576 175.684 137.576Z" fill="#1A73E8"/>
    <path opacity="0.75" d="M175.684 137.576C180.274 133.253 184.318 120.535 182.232 107.173C180.146 93.811 167.798 81.315 162.881 78.612C157.964 75.909 154.504 79.405 155.841 84.386C157.66 91.162 159.927 106.406 147.281 113.119C147.281 113.119 149.153 123.072 155.67 130.973C162.187 138.874 175.684 137.576 175.684 137.576Z" fill="white"/>
    <path d="M158.521 87.013C157.406 87.013 156.301 86.851 155.278 86.525C154.958 86.423 154.781 86.082 154.883 85.762C154.986 85.444 155.327 85.264 155.645 85.368C159.627 86.638 165 85.155 166.345 80.998C166.448 80.68 166.786 80.504 167.11 80.608C167.429 80.711 167.603 81.054 167.5 81.373C166.289 85.113 162.342 87.013 158.521 87.013Z" fill="#1A73E8"/>
    <path d="M163.069 95.406C159.663 95.406 157.3 94.064 156.385 93.546C156.093 93.38 155.992 93.01 156.157 92.719C156.322 92.426 156.693 92.325 156.984 92.49C158.851 93.55 161.815 94.842 165.988 93.838C171.507 92.51 172.685 89.277 172.935 87.948C172.997 87.617 173.319 87.403 173.644 87.464C173.973 87.526 174.189 87.843 174.128 88.172C173.834 89.733 172.48 93.525 166.273 95.019C165.125 95.294 164.053 95.406 163.069 95.406Z" fill="#1A73E8"/>
    <path d="M169.352 105.927C169.337 105.927 169.321 105.927 169.305 105.927C162.179 105.913 157.763 102.351 155.765 100.229C155.535 99.985 155.547 99.601 155.791 99.371C156.034 99.142 156.418 99.152 156.649 99.397C158.514 101.377 162.636 104.701 169.307 104.714C169.322 104.714 169.338 104.714 169.353 104.714C177.145 104.714 179.46 101.054 180.45 99.489C180.631 99.205 181.007 99.121 181.288 99.301C181.571 99.48 181.655 99.855 181.476 100.138C180.474 101.722 177.813 105.927 169.352 105.927Z" fill="#1A73E8"/>
    <path d="M172.534 118.134C170.308 118.134 167.903 117.804 165.447 116.976C159.708 115.041 155.563 111.714 153.13 107.089C152.974 106.792 153.087 106.425 153.385 106.269C153.679 106.114 154.049 106.226 154.204 106.523C156.519 110.925 160.324 113.968 165.836 115.826C173.443 118.389 180.704 115.84 182.727 113.972C182.974 113.745 183.358 113.761 183.584 114.006C183.812 114.252 183.796 114.636 183.55 114.864C181.96 116.333 177.736 118.134 172.534 118.134Z" fill="#1A73E8"/>
    <path opacity="0.1" d="M157.193 126.732C168.077 114.297 163.869 94.708 161.193 89.092C157.425 81.187 159.02 77.72 162.317 78.34C157.705 76.2 154.556 79.599 155.841 84.385C157.66 91.161 159.927 106.405 147.281 113.118C147.281 113.118 148.92 121.825 154.465 129.416C155.375 128.648 156.287 127.767 157.193 126.732Z" fill="black"/>
    <path d="M185.678 211.349C181.978 202.342 180.136 177.445 180.901 161.077C183.38 160.558 186.413 157.178 185.187 152.808C184.085 148.88 183.015 148.362 179.703 144.121C177.338 141.093 175.695 137.086 173.576 133.842C166.301 122.7 157.049 115.267 143.434 112.064C141.097 111.514 139.691 109.103 140.362 106.799C141.232 103.808 141.973 99.883 141.059 97.002C139.372 91.685 136.014 91.146 133.787 92.13C131.56 93.114 131.401 95.325 132.068 98.895C132.735 102.465 131.689 103.09 130.496 102.706C129.303 102.322 128.422 95.834 120.112 92.781C111.802 89.728 106.188 93.734 106.327 97.165C106.478 100.908 109.201 101.2 114.967 101.824C117.418 102.089 120.024 103.121 121.682 104.805C124.001 107.16 122.716 111.145 119.49 111.864C98.356 116.574 81.952 134.184 77.312 157.944C76.609 161.574 76.125 165.953 75.832 170.846C75.832 170.846 73.714 166.867 69.169 165.75C65.087 164.746 63.472 166.701 63.526 168.522C63.58 170.344 65.853 171.213 68.143 172.161C71.813 173.681 72.41 175.091 72.41 175.091C72.41 175.091 69.237 174.554 66.728 175.663C64.219 176.771 63.562 179.485 65.988 180.518C67.343 181.095 69.41 180.061 71.54 179.567C72.881 179.257 75.362 178.765 75.5 180.375L75.502 180.374C75.453 184.136 75.486 188.074 75.595 192.116C75.902 203.527 77.901 211.341 76.077 221.69C74.695 229.533 67.834 235.731 74.723 242.204C77.802 245.097 81.399 245.323 84.221 244.83C86.53 244.426 88.687 245.865 89.223 248.147C89.988 251.404 92.344 255.359 98.98 257.115C105.106 258.736 109.027 256.87 111.416 254.599C113.148 252.953 115.909 252.932 117.442 254.765C119.99 257.811 124.719 261.082 133.269 261.04C141.803 260.998 146.124 257.29 148.258 254.132C149.517 252.269 151.974 251.594 153.909 252.738C157.156 254.658 162.375 256.202 168.879 252.733C173.712 250.155 174.962 245.522 175.079 241.766C175.155 239.302 177.382 237.375 179.819 237.749C183.549 238.323 187.346 237.346 189.911 233.469C194.531 226.485 189.012 219.465 185.678 211.349Z" fill="#1A73E8"/>
    <g opacity="0.1">
    <path d="M68.142 172.16C71.812 173.68 72.409 175.09 72.409 175.09C72.409 175.09 69.236 174.553 66.727 175.662C64.218 176.77 63.561 179.484 65.987 180.517C67.342 181.094 69.409 180.06 71.539 179.566C72.88 179.256 75.361 178.764 75.499 180.374L75.501 180.373C75.452 184.135 75.485 188.073 75.594 192.115C75.901 203.526 77.9 211.34 76.076 221.689C74.694 229.532 67.833 235.73 74.722 242.203C76.337 243.721 78.094 244.493 79.808 244.824C79.603 244.714 76.378 239.526 80.177 232.055C85.518 221.554 85.187 214.976 83.788 193.691C82.076 167.649 85.272 156.52 94.723 138.117C104.406 119.261 119.813 118.344 126.354 113.347C129.909 110.631 128.692 105.694 125.583 102.565C122.971 99.936 118.891 98.872 116.486 98.623C111.217 98.078 106.33 97.164 107.318 94.534C106.644 95.363 106.293 96.282 106.329 97.164C106.48 100.907 109.203 101.199 114.969 101.823C117.42 102.088 120.026 103.12 121.684 104.804C124.003 107.159 122.718 111.144 119.492 111.863C98.358 116.573 81.954 134.183 77.314 157.943C76.611 161.573 76.127 165.952 75.834 170.845C75.834 170.845 73.716 166.866 69.171 165.749C65.089 164.745 63.474 166.7 63.528 168.521C63.579 170.343 65.853 171.212 68.142 172.16Z" fill="black"/>
    <path d="M94.722 248.249C92.036 244.714 89.869 244.134 86.139 244.919C86.132 244.92 86.127 244.924 86.12 244.925C87.622 245.33 88.838 246.515 89.221 248.146C89.986 251.403 92.342 255.358 98.978 257.114C103.304 258.259 106.526 257.661 108.89 256.414C99.298 258.499 97.407 251.784 94.722 248.249Z" fill="black"/>
    <path d="M140.795 259.809C136.069 260.429 131.639 259.362 126.658 255.714C121.288 251.781 118.664 252.148 115.342 253.479L115.34 253.48C116.132 253.661 116.871 254.084 117.441 254.764C119.989 257.81 124.718 261.081 133.268 261.039C136.273 261.024 138.746 260.549 140.795 259.809Z" fill="black"/>
    <path d="M134.268 97.338C134.089 94.185 136.102 91.803 138.576 92.843C136.991 91.497 135.171 91.518 133.787 92.129C131.56 93.113 131.401 95.324 132.068 98.894C132.735 102.464 131.689 103.089 130.496 102.705C130.32 102.648 130.148 102.446 129.96 102.153L129.961 102.156C130.875 104.182 131.768 106.206 133.851 105.075C135.935 103.944 134.447 100.492 134.268 97.338Z" fill="black"/>
    </g>
    <path opacity="0.2" d="M114.145 169.43C114.145 169.43 115.299 174.315 120.651 174.247C126.003 174.179 126.591 171.748 128.784 168.433C130.977 165.118 135.678 164.368 139.766 164.3C143.854 164.232 147.679 159.593 145.488 154.896C145.488 154.896 146.045 158.247 142.769 160.388C139.493 162.529 135.134 160.6 130.841 162.655C126.548 164.709 126.178 169.331 123.025 170.801C119.872 172.272 116.05 171.154 114.145 169.43Z" fill="black"/>
    <path d="M139.205 166.66C138.732 171.066 134.775 174.246 130.369 173.773C127.759 173.494 125.575 171.989 124.336 169.889C126.46 167.91 127.261 164.488 130.842 162.655C133.67 161.211 135.818 161.866 138.185 161.805C138.999 163.225 139.4 164.912 139.205 166.66Z" fill="#455A64"/>
    <path d="M112.448 166.973C113.429 169.189 115.696 171.838 120.861 171.388C126.262 170.917 125.827 165.212 130.84 162.655C135.427 160.315 138.238 163.487 143.049 160.206C147.393 157.243 144.932 151.396 143.295 150.2" stroke="#455A64" stroke-width="1.2138" stroke-miterlimit="10" stroke-linecap="round"/>
    <path d="M137.117 165.788C137.102 167.005 136.103 167.979 134.886 167.963C133.669 167.948 132.695 166.949 132.711 165.732C132.726 164.515 133.725 163.541 134.942 163.557C136.158 163.573 137.132 164.572 137.117 165.788Z" fill="#F5F5F5"/>
    <path opacity="0.2" d="M180.89 161.353L180.357 161.078C180.357 161.078 178.474 160.95 177.403 159.96C176.332 158.97 175.128 155.729 171.705 154.896C168.281 154.063 166.366 155.733 162.571 155.894C158.775 156.055 157.498 153.432 156.737 151.234C156.335 154.963 157.391 157.462 160.095 158.56C163.098 159.779 168.528 157.22 170.849 158.56C173.17 159.9 174.513 162.671 177.403 162.992C179.073 163.178 180.191 162.721 180.851 162.301C180.863 161.982 180.876 161.666 180.89 161.353Z" fill="black"/>
    <path d="M177.403 159.96C176.468 163.601 172.985 166.114 169.125 165.701C164.901 165.24 161.842 161.441 162.303 157.217C162.352 156.768 162.437 156.319 162.57 155.894C165.386 155.821 167.959 153.867 171.71 154.899C175.012 155.809 175.23 158.418 177.403 159.96Z" fill="#455A64"/>
    <path d="M156.889 148.714C156.121 150.86 157.139 153.655 159.34 154.986C163.702 157.624 166.604 153.491 171.706 154.896C175.538 155.952 175.222 159.266 178.587 160.601C179.238 160.859 180.264 161.101 180.902 161.076" stroke="#455A64" stroke-width="1.2138" stroke-miterlimit="10" stroke-linecap="round"/>
    <path d="M174.072 159.55C174.058 160.687 173.125 161.596 171.988 161.582C170.851 161.568 169.942 160.635 169.956 159.498C169.97 158.361 170.903 157.452 172.04 157.466C173.176 157.481 174.086 158.414 174.072 159.55Z" fill="#F5F5F5"/>
    <path d="M149.814 176.643C139.42 181.291 130.289 190.484 126.07 200.618C123.469 206.865 124.885 212.062 128.373 213.24C135.248 215.563 142.958 204.843 150.625 201.103C158.217 197.4 164.538 200.978 168.43 198.47C173.009 195.519 172.34 187.993 169.879 182.619C167.135 176.625 160.209 171.995 149.814 176.643Z" fill="#455A64"/>
    <path d="M168.167 198.609C164.357 185.364 151.922 181.235 139.299 183.233C133.512 188.008 128.777 194.115 126.07 200.618C123.469 206.865 124.885 212.062 128.373 213.24C135.248 215.563 142.958 204.842 150.625 201.103C158.053 197.48 164.257 200.81 168.167 198.609Z" fill="#F28F8F"/>
    <path opacity="0.1" d="M159.956 199.304C147.19 195.872 138.949 206.844 134.913 206.741C130.875 206.638 128.924 203.113 134.52 194.155C140.065 185.279 152.126 182.763 157.367 185.38C152.141 182.803 145.748 182.211 139.299 183.232C133.512 188.007 128.777 194.114 126.07 200.617C123.469 206.864 124.886 212.061 128.373 213.239C135.248 215.562 142.958 204.841 150.625 201.102C154.029 199.443 157.17 199.246 159.956 199.304Z" fill="black"/>
    <path d="M164.858 186.623C162.395 187.691 162.428 190.963 160.399 197.909C160.257 198.396 160.118 198.862 159.982 199.31C163.405 199.388 166.288 199.85 168.431 198.469C168.869 198.187 169.25 197.849 169.603 197.486C170.1 192.216 167.464 185.493 164.858 186.623Z" fill="#F5F5F5"/>
    <path d="M169.603 197.487C169.661 196.875 169.672 196.243 169.651 195.606C168.987 196.456 167.949 197.286 166.789 197.513C164.919 197.878 162.839 197.513 162.839 197.513C162.839 197.513 163.484 193.451 164.117 189.961C164.542 187.618 165.945 186.604 167.059 187.415C166.374 186.645 165.616 186.296 164.859 186.625C162.396 187.693 162.429 190.965 160.4 197.911C160.258 198.398 160.119 198.864 159.983 199.312C163.406 199.39 166.288 199.852 168.432 198.471C168.869 198.187 169.25 197.849 169.603 197.487Z" fill="#E0E0E0"/>
    <path d="M138.466 195.254C136.003 196.322 136.036 199.594 134.007 206.54C133.119 209.579 132.362 211.818 131.769 213.424C135.436 212.718 139.287 209.417 143.202 206.245C143.755 200.958 141.092 194.115 138.466 195.254Z" fill="#F5F5F5"/>
    <path d="M143.202 206.245C143.29 205.4 143.289 204.516 143.226 203.63C139.338 206.15 137 208.846 136.384 208.512C135.766 208.176 136.296 205.443 136.562 202.436C136.883 198.807 137.333 195.05 139.744 195.313C139.326 195.113 138.896 195.067 138.465 195.254C136.002 196.322 136.035 199.594 134.006 206.54C133.118 209.579 132.361 211.818 131.768 213.424C135.437 212.719 139.288 209.417 143.202 206.245Z" fill="#E0E0E0"/>
    <path d="M53.759 240.386C53.439 240.386 53.114 240.335 52.794 240.227C51.204 239.695 50.349 237.974 50.882 236.385C58.96 212.297 70.832 202.117 87.368 193.5C88.852 192.725 90.686 193.301 91.461 194.788C92.236 196.274 91.659 198.107 90.173 198.881C74.585 207.005 64.099 216.062 56.636 238.315C56.21 239.583 55.027 240.386 53.759 240.386Z" fill="#455A64"/>
    <path d="M51.621 234.218C50.348 237.517 48.411 238.855 46.558 240.798C44.705 242.741 42.713 243.931 40.78 246.974C38.847 250.017 37.936 255.168 38.516 257.575C38.844 258.936 40.729 258.951 40.839 257.755C41.249 253.322 41.987 249.504 45.101 247.125C45.101 247.125 42.992 251.403 42.713 255.308C42.434 259.212 42.945 263.864 44.563 264.099C46.181 264.334 46.115 262.676 45.89 260.332C45.665 257.988 45.454 251.779 48.575 247.351C48.575 247.351 47.462 253.893 48.573 258.065C49.684 262.237 51.849 265.229 53.048 264.716C54.246 264.203 54.189 263.41 52.893 260.199C51.887 257.706 51.937 254.549 52.192 251.874C52.451 249.146 53.077 247.237 54.91 245.334C55.708 244.506 56.552 244.044 57.221 243.852C57.977 243.635 59.28 244.071 59.978 244.749C61.106 245.847 62.097 247.233 62.407 249.51C62.692 251.61 66.162 251.803 64.87 245.897C63.578 239.992 56.308 238.957 58.132 234.139L51.621 234.218Z" fill="#455A64"/>
    <path d="M202.675 212.13L205.439 206.773C201.144 204.531 206.056 197.938 203.573 192.427C201.09 186.916 198.419 189.139 199.442 190.995C200.551 193.007 200.761 194.751 200.331 196.265C199.914 197.732 198.963 198.589 197.946 197.722C196.928 196.854 196.287 193.992 192.576 190.842C189.208 187.983 186.021 187.427 184.629 187.424C181.732 187.417 182.75 189.436 184.145 189.996C190.13 192.396 190.877 193.73 192.383 195.686C193.889 197.642 193.69 198.773 192.907 198.539C192.124 198.305 190.943 196.611 187.286 194.929C183.629 193.247 179.586 193.264 178.947 194.029C178.309 194.794 178.39 195.787 180.127 196.203C181.863 196.618 185.54 197.536 187.537 198.688C190.087 200.159 191.252 202.058 190.83 202.614C190.408 203.17 188.231 201.624 184.912 201.013C181.594 200.402 179.886 200.405 178.514 200.937C177.491 201.333 177.858 203.384 180.904 203.527C183.364 203.643 187.382 204.833 189.621 206.36C190.867 207.21 192.527 208.372 194.679 209.305C197.03 210.324 198.452 210.768 202.675 212.13Z" fill="#455A64"/>
    <path d="M103.384 131.17C106.893 133.005 112.521 142.588 105.622 152.779C98.724 162.97 88.952 162.601 84.469 161.828C81.669 160.466 67.015 154.114 66.29 133.848C65.565 113.583 78.038 105.829 81.159 104.033C84.28 102.238 90.496 101.695 89.73 108.637C88.964 115.579 88.23 121.735 93.274 126.199C97.226 129.697 103.384 131.17 103.384 131.17Z" fill="#1A73E8"/>
    <path opacity="0.75" d="M103.384 131.17C106.893 133.005 112.521 142.588 105.622 152.779C98.724 162.97 88.952 162.601 84.469 161.828C81.669 160.466 67.015 154.114 66.29 133.848C65.565 113.583 78.038 105.829 81.159 104.033C84.28 102.238 90.496 101.695 89.73 108.637C88.964 115.579 88.23 121.735 93.274 126.199C97.226 129.697 103.384 131.17 103.384 131.17Z" fill="white"/>
    <path d="M77.128 157.518C76.55 157.518 76.053 157.491 75.657 157.449C75.324 157.413 75.083 157.114 75.119 156.78C75.155 156.446 75.459 156.209 75.788 156.242C78.834 156.57 88.134 155.889 94.558 148.882C101.134 141.706 101.396 134.721 100.456 130.125C100.39 129.797 100.601 129.476 100.93 129.409C101.252 129.343 101.578 129.553 101.646 129.882C102.642 134.755 102.375 142.149 95.451 149.703C89.522 156.171 81.244 157.518 77.128 157.518Z" fill="#1A73E8"/>
    <path d="M73.409 144.143C69.734 144.143 67.016 143.552 66.788 143.501C66.461 143.427 66.255 143.103 66.328 142.776C66.403 142.449 66.724 142.243 67.053 142.317C67.513 142.42 78.386 144.782 86.183 139.553C93.239 134.821 93.855 129.107 94.118 126.667C94.153 126.333 94.468 126.099 94.787 126.129C95.12 126.164 95.361 126.464 95.325 126.797C95.068 129.181 94.386 135.514 86.859 140.56C82.567 143.439 77.418 144.143 73.409 144.143Z" fill="#1A73E8"/>
    <path d="M76.311 127.987C71.081 127.987 67.664 126.342 65.926 125.204C65.646 125.02 65.568 124.644 65.752 124.364C65.936 124.081 66.312 124.007 66.592 124.189C68.611 125.511 73.072 127.565 80.304 126.46C86.013 125.587 88.485 123.751 90.307 121.896C90.54 121.657 90.925 121.654 91.165 121.889C91.404 122.124 91.407 122.508 91.172 122.747C89.204 124.75 86.547 126.733 80.486 127.659C78.985 127.888 77.594 127.987 76.311 127.987Z" fill="#1A73E8"/>
    <path d="M82.675 116.296C81.542 116.296 80.321 116.152 79.017 115.812C75.808 114.976 73.412 113.138 72.086 110.498C71.937 110.199 72.058 109.834 72.356 109.684C72.652 109.533 73.02 109.653 73.172 109.954C74.351 112.306 76.421 113.882 79.323 114.638C83.846 115.816 87.267 114.418 89.34 113.037C89.615 112.85 89.995 112.924 90.182 113.206C90.368 113.484 90.292 113.861 90.014 114.047C88.333 115.166 85.848 116.296 82.675 116.296Z" fill="#1A73E8"/>
    <path opacity="0.1" d="M92.383 154.598C87.958 154.195 82.422 152.942 77.63 145.593C72.838 138.244 71.347 122.94 75.722 113.716C78.599 107.65 84.355 102.086 88.5 103.944C86.646 102.218 83.228 102.843 81.159 104.033C78.038 105.828 65.565 113.582 66.29 133.848C67.015 154.114 81.669 160.465 84.469 161.828C88.952 162.6 98.724 162.97 105.622 152.779C110.241 145.955 109.242 139.409 107.026 135.274L107.022 135.272C110.487 146.142 98.956 155.197 92.383 154.598Z" fill="black"/>
    <path d="M101.456 152.5C101.456 152.5 96.244 158.246 96.199 163.775C96.176 166.576 98.195 169.139 101.456 169.139C104.718 169.139 106.737 166.577 106.714 163.775C106.668 158.246 101.456 152.5 101.456 152.5Z" fill="#FAFAFA"/>
    <path d="M283.771 50.2955L219.29 87.4775C218.62 87.8645 218.077 88.8055 218.077 89.5795V130.117C218.077 130.891 218.623 131.826 219.297 132.207L223.644 134.644C224.318 135.024 225.408 135.019 226.078 134.632L290.559 97.4495C291.229 97.0625 291.772 96.1215 291.772 95.3475V54.8105C291.772 54.0365 291.226 53.1015 290.552 52.7205L286.205 50.2835C285.531 49.9035 284.442 49.9085 283.771 50.2955Z" fill="#1A73E8"/>
    <path d="M224.865 133.932V93.3945C224.865 92.6205 225.408 91.6795 226.079 91.2925L290.56 54.1105C291.23 53.7235 291.773 54.0375 291.773 54.8115V95.3485C291.773 96.1225 291.23 97.0635 290.56 97.4505L226.079 134.633C225.408 135.019 224.865 134.705 224.865 133.932Z" fill="#1A73E8"/>
    <path opacity="0.2" d="M226.078 134.632C225.362 135.042 224.252 135.02 223.642 134.646L219.297 132.204C218.624 131.828 218.075 130.892 218.075 130.119V89.5785C218.075 89.1745 218.226 88.7325 218.462 88.3395L225.222 92.1995C224.998 92.5745 224.863 93.0065 224.863 93.3935V133.929C224.865 134.638 225.364 135.046 226.078 134.632Z" fill="black"/>
    <path opacity="0.4" d="M291.757 54.5905C291.662 53.9795 291.163 53.7605 290.558 54.1085L226.081 91.2925C225.745 91.4885 225.442 91.8195 225.224 92.2005L218.458 88.3405C218.677 87.9765 218.968 87.6625 219.293 87.4775L283.775 50.2935C284.442 49.9065 285.529 49.9015 286.207 50.2825L290.552 52.7185C291.163 53.0655 291.672 53.8675 291.757 54.5905Z" fill="white"/>
    <path d="M218.076 103.983L208.312 113.916C207.791 114.446 207.972 115.235 208.496 115.576C208.697 115.707 215.255 119.464 215.255 119.464L224.864 107.894L218.076 103.983Z" fill="#1A73E8"/>
    <path opacity="0.1" d="M218.076 103.983L208.312 113.916C207.791 114.446 207.972 115.235 208.496 115.576C208.697 115.707 215.255 119.464 215.255 119.464L224.864 107.894L218.076 103.983Z" fill="black"/>
    <path d="M224.865 107.893L215.101 117.825C214.38 118.558 215.003 119.787 216.02 119.641L224.865 118.364C225.814 118.365 225.814 107.893 224.865 107.893Z" fill="#1A73E8"/>
    <path d="M232.765 104.617C232.803 103.484 232.96 102.348 233.238 101.206C233.515 100.065 233.908 98.9855 234.416 97.9675C234.925 96.9495 235.542 96.0185 236.271 95.1715C236.998 94.3255 237.838 93.6275 238.791 93.0775C239.73 92.5345 240.568 92.2645 241.302 92.2665C242.036 92.2695 242.657 92.4855 243.167 92.9155C243.676 93.3455 244.068 93.9715 244.345 94.7925C244.622 95.6145 244.779 96.5685 244.818 97.6575C244.844 98.4945 244.856 99.3795 244.856 100.312C244.856 101.244 244.843 102.124 244.818 102.952C244.78 104.084 244.622 105.221 244.345 106.362C244.067 107.503 243.675 108.588 243.167 109.616C242.658 110.643 242.036 111.577 241.302 112.417C240.568 113.257 239.73 113.949 238.791 114.492C237.838 115.042 236.998 115.319 236.271 115.322C235.542 115.326 234.925 115.108 234.416 114.668C233.908 114.228 233.514 113.597 233.238 112.775C232.96 111.953 232.804 110.999 232.765 109.911C232.738 109.113 232.726 108.248 232.726 107.316C232.726 106.384 232.739 105.484 232.765 104.617ZM241.245 104.866C241.258 104.502 241.272 104.098 241.283 103.654C241.296 103.21 241.302 102.761 241.302 102.305C241.302 101.849 241.296 101.412 241.283 100.992C241.271 100.573 241.257 100.2 241.245 99.8695C241.219 99.3885 241.152 98.9715 241.043 98.6185C240.934 98.2655 240.779 97.9935 240.579 97.8015C240.379 97.6095 240.132 97.5095 239.836 97.5015C239.539 97.4955 239.192 97.6055 238.792 97.8365C238.392 98.0665 238.045 98.3575 237.749 98.7065C237.452 99.0565 237.205 99.4425 237.006 99.8655C236.805 100.289 236.651 100.74 236.542 101.219C236.432 101.699 236.364 102.194 236.339 102.704C236.313 103.056 236.297 103.447 236.29 103.877C236.284 104.308 236.281 104.75 236.281 105.207C236.281 105.663 236.284 106.107 236.29 106.539C236.296 106.971 236.313 107.359 236.339 107.7C236.391 108.662 236.613 109.356 237.006 109.784C237.398 110.212 237.994 110.195 238.792 109.734C239.59 109.273 240.183 108.604 240.569 107.727C240.955 106.847 241.18 105.894 241.245 104.866Z" fill="#455A64"/>
    <path d="M256.929 94.8585C256.942 95.1485 256.949 95.5265 256.949 95.9915C256.949 96.4575 256.942 96.8435 256.929 97.1485C256.903 98.1145 256.761 99.0885 256.505 100.071C256.247 101.052 255.893 101.985 255.442 102.87C254.991 103.754 254.448 104.559 253.81 105.284C253.172 106.009 252.461 106.599 251.676 107.052C250.891 107.506 250.179 107.738 249.541 107.749C248.904 107.76 248.36 107.584 247.909 107.22C247.458 106.855 247.104 106.331 246.847 105.647C246.589 104.963 246.448 104.152 246.422 103.216C246.409 102.926 246.403 102.548 246.403 102.082C246.403 101.617 246.409 101.231 246.422 100.926C246.435 99.9665 246.57 98.9965 246.828 98.0145C247.086 97.0325 247.443 96.0975 247.9 95.2095C248.356 94.3205 248.904 93.5085 249.541 92.7745C250.179 92.0405 250.891 91.4445 251.676 90.9915C252.461 90.5385 253.172 90.3115 253.81 90.3105C254.448 90.3085 254.995 90.4885 255.452 90.8495C255.908 91.2095 256.264 91.7335 256.514 92.4215C256.765 93.1095 256.904 93.9205 256.929 94.8585ZM249.898 101.059C249.937 101.791 250.114 102.278 250.429 102.522C250.744 102.767 251.16 102.74 251.675 102.442C252.19 102.145 252.605 101.692 252.921 101.083C253.236 100.475 253.413 99.7835 253.452 99.0065C253.478 98.6945 253.49 98.3495 253.49 97.9735C253.49 97.5965 253.477 97.2675 253.452 96.9855C253.414 96.2545 253.237 95.7665 252.921 95.5225C252.605 95.2785 252.19 95.3045 251.675 95.6025C251.16 95.8995 250.744 96.3535 250.429 96.9615C250.114 97.5695 249.937 98.2625 249.898 99.0375C249.872 99.3495 249.86 99.6935 249.86 100.071C249.86 100.448 249.872 100.777 249.898 101.059Z" fill="#455A64"/>
    <path d="M264.811 99.4675C264.438 99.6835 264.109 99.8135 263.826 99.8575C263.543 99.9025 263.298 99.8945 263.092 99.8355C262.887 99.7755 262.712 99.6825 262.571 99.5565C262.429 99.4305 262.313 99.3045 262.224 99.1775V105.513C262.224 105.731 262.172 105.949 262.069 106.168C261.965 106.386 261.844 106.535 261.702 106.617L259.267 108.022C259.125 108.104 259.003 108.096 258.9 107.997C258.797 107.897 258.746 107.739 258.746 107.52V88.0095C258.746 87.7915 258.797 87.5745 258.9 87.3565C259.004 87.1385 259.125 86.9885 259.267 86.9065L261.605 85.5575C261.746 85.4755 261.868 85.4855 261.973 85.5835C262.076 85.6825 262.127 85.8405 262.127 86.0595V86.7445C262.242 86.4795 262.369 86.1975 262.504 85.9015C262.639 85.6055 262.806 85.3155 263.006 85.0315C263.206 84.7485 263.451 84.4675 263.74 84.1915C264.03 83.9155 264.387 83.6545 264.812 83.4085C265.392 83.0735 265.938 82.8925 266.454 82.8625C266.968 82.8335 267.42 82.9885 267.806 83.3315C268.193 83.6725 268.504 84.2025 268.743 84.9165C268.981 85.6325 269.112 86.5665 269.139 87.7215C269.152 88.0115 269.158 88.4095 269.158 88.9155C269.158 89.4205 269.152 89.8265 269.139 90.1305C269.112 91.3155 268.981 92.4025 268.743 93.3925C268.504 94.3835 268.192 95.2725 267.806 96.0605C267.42 96.8485 266.968 97.5295 266.454 98.1045C265.937 98.6785 265.391 99.1335 264.811 99.4675ZM265.681 91.7685C265.719 91.1905 265.719 90.6355 265.681 90.1025C265.642 89.4315 265.493 88.9125 265.237 88.5455C264.979 88.1785 264.548 88.1695 263.942 88.5195C263.659 88.6835 263.414 88.8935 263.208 89.1515C263.003 89.4095 262.832 89.6915 262.697 89.9965C262.561 90.3025 262.455 90.6165 262.378 90.9385C262.301 91.2615 262.249 91.5785 262.224 91.8905C262.197 92.2035 262.184 92.5575 262.184 92.9535C262.184 93.3505 262.197 93.6895 262.224 93.9725C262.249 94.2545 262.301 94.5125 262.378 94.7455C262.455 94.9785 262.561 95.1705 262.697 95.3205C262.833 95.4705 263.003 95.5555 263.208 95.5745C263.414 95.5945 263.659 95.5225 263.942 95.3585C264.548 95.0085 264.978 94.5025 265.237 93.8375C265.493 93.1755 265.641 92.4845 265.681 91.7685Z" fill="#455A64"/>
    <path d="M276.671 87.6825C276.671 87.4645 276.623 87.3235 276.526 87.2605C276.43 87.1975 276.266 87.1935 276.034 87.2475C275.801 87.3025 275.496 87.3995 275.116 87.5395C274.737 87.6795 274.263 87.8345 273.697 88.0025C272.718 88.2895 271.965 88.1695 271.437 87.6405C270.908 87.1135 270.645 86.1755 270.645 84.8275C270.645 84.1535 270.753 83.4665 270.972 82.7645C271.191 82.0635 271.497 81.3815 271.89 80.7175C272.282 80.0545 272.756 79.4395 273.31 78.8715C273.863 78.3045 274.481 77.8235 275.164 77.4295C275.834 77.0425 276.452 76.8105 277.019 76.7305C277.585 76.6515 278.074 76.6865 278.487 76.8345C278.898 76.9835 279.224 77.2415 279.462 77.6095C279.7 77.9775 279.832 78.4025 279.858 78.8825C279.871 79.0935 279.822 79.3095 279.713 79.5315C279.603 79.7535 279.477 79.9045 279.336 79.9865L277.037 81.3135C276.895 81.3955 276.783 81.4105 276.7 81.3605C276.617 81.3095 276.516 81.2585 276.4 81.2065C276.285 81.1545 276.133 81.1325 275.946 81.1415C275.759 81.1505 275.498 81.2515 275.163 81.4445C274.867 81.6155 274.62 81.8225 274.419 82.0675C274.219 82.3125 274.12 82.5815 274.12 82.8785C274.12 83.0975 274.151 83.2465 274.216 83.3285C274.281 83.4105 274.409 83.4305 274.602 83.3885C274.796 83.3475 275.067 83.2655 275.414 83.1435C275.762 83.0225 276.219 82.8675 276.786 82.6785C277.957 82.2995 278.81 82.4165 279.345 83.0295C279.879 83.6435 280.146 84.5445 280.146 85.7335C280.146 86.4075 280.037 87.1005 279.818 87.8115C279.599 88.5225 279.277 89.2245 278.852 89.9155C278.428 90.6065 277.913 91.2565 277.307 91.8635C276.701 92.4705 276.012 92.9975 275.241 93.4435C274.468 93.8895 273.789 94.1475 273.203 94.2175C272.617 94.2885 272.124 94.2315 271.725 94.0455C271.326 93.8585 271.019 93.5805 270.808 93.2075C270.595 92.8345 270.476 92.4175 270.45 91.9575C270.438 91.7465 270.486 91.5305 270.596 91.3085C270.705 91.0875 270.831 90.9345 270.972 90.8535L273.368 89.4705C273.509 89.3895 273.613 89.3845 273.677 89.4565C273.741 89.5285 273.824 89.5995 273.928 89.6685C274.031 89.7385 274.179 89.7715 274.371 89.7695C274.565 89.7665 274.855 89.6535 275.242 89.4305C275.628 89.2075 275.962 88.9355 276.245 88.6135C276.529 88.2905 276.671 87.9805 276.671 87.6825Z" fill="#455A64"/>
    <path d="M285.383 80.0955C285.383 80.3135 285.331 80.5325 285.228 80.7505C285.124 80.9685 285.003 81.1185 284.861 81.1995L282.427 82.6045C282.285 82.6865 282.162 82.6785 282.06 82.5795C281.956 82.4805 281.906 82.3215 281.906 82.1025V69.2855C281.906 69.0675 281.956 68.8495 282.06 68.6315C282.163 68.4135 282.285 68.2635 282.427 68.1815L284.861 66.7765C285.002 66.6945 285.124 66.7045 285.228 66.8035C285.331 66.9025 285.383 67.0615 285.383 67.2795V80.0955ZM285.383 86.4905C285.383 86.7085 285.331 86.9265 285.228 87.1445C285.124 87.3635 285.003 87.5125 284.861 87.5945L282.427 88.9995C282.285 89.0815 282.162 89.0735 282.06 88.9735C281.956 88.8745 281.906 88.7155 281.906 88.4975V85.4935C281.906 85.2755 281.956 85.0585 282.06 84.8395C282.163 84.6215 282.285 84.4715 282.427 84.3895L284.861 82.9845C285.002 82.9025 285.124 82.9115 285.228 83.0105C285.331 83.1105 285.383 83.2685 285.383 83.4865V86.4905Z" fill="#455A64"/>
</svg>
    